<?xml version="1.0" encoding="UTF-8"?>
<svg viewBox="0 0 271.25 167.5" xmlns="http://www.w3.org/2000/svg">
 <g transform="matrix(1.25,0,0,-1.25,0,167.5)">
  <g transform="scale(.24)">
   <path d="m8.543 10.418c14.582 29.582 29.582 59.375 51.457 84.375 57.707 70.625 117.08 143.96 202.92 181.66 10 3.75 23.539-1.039 28.75-13.539 4.789-11.668-0.418-24.793-10.625-29.793-51.875-26.668-107.09-50-150-90.832-43.543-41.461-88.336-84.793-122.5-131.88" fill="#96b497"/>
   <path d="m41.668 62.082c36.25 53.336 79.582 102.09 126.88 146.25 29.164 25.418 60.207 49.793 95.832 65 10.207 4.586 22.082-1.25 27.5-10.207-7.707 6.043-16.043 13.125-26.457 8.332-92.711-47.5-161.25-128.54-223.75-209.38" fill="#829c83"/>
   <path d="m8.543 10.418c14.582 29.582 29.582 59.375 51.457 84.375 57.707 70.625 117.29 143.96 203.12 181.66 5 1.875 10.832 1.668 16.25-0.625-5.207 1.461-10.832 1.668-15.832-0.625-50.418-22.5-93.961-58.332-130.84-99.164-29.164-30-56.039-62.086-81.25-95.418-17.707-21.25-27.289-47.707-42.914-70.207" fill="#abcfad"/>
   <path d="m8.543 10.418c14.582 29.582 29.582 59.375 51.457 84.375 57.707 70.625 117.08 143.96 202.92 181.66 10 3.75 23.539-1.039 28.75-13.539 4.789-11.668-0.418-24.793-10.625-29.793-51.875-26.668-107.09-50-150-90.832-43.543-41.461-88.336-84.793-122.5-131.88z" fill="none" stroke="#434e43" stroke-width=".625"/>
   <path d="m281.043,233.125-13.125,31.875c2.082,2.707 4.375,5.418 7.289,7.293-1.457,1.25-3.125,1.664-4.789,2.5l-3.336-.625c-6.664-2.711-13.125-3.336-19.375-4.375-2.5-.625-5-1.25-7.5-2.086-.832-.832-2.082-1.25-4.164-1.664-1.043-1.668-4.168-3.336-7.086-2.918-1.457-.418-2.707-1.043-3.957-2.082 .625,2.082 2.082,3.539 4.168,4.164 1.457,1.875 3.957,2.918 6.25,3.336 1.457,1.664 3.957,3.125 6.25,3.539-1.043.211-2.293.211-3.543-.207-.625-.418-2.293-.832-3.75-.625-1.457-2.082-4.375-3.543-7.5-2.918-1.875-.207-3.332-1.039-4.793-2.707 1.043,2.293 2.711,3.957 4.375,5.207 5.418,3.543 13.125,3.75 18.336,7.918-1.461,0-3.125.207-4.586.625-1.039-1.043-2.914-1.875-5.414-2.293-1.461-1.457-4.168-2.5-6.668-1.875-1.668-.625-2.707-1.25-4.793-2.5 1.25,1.875 2.5,3.336 4.168,4.586 3.957,3.539 9.375,5.414 15.207,5.625 5,.207 10.211,1.25 15.211-.418 7.914-3.125 17.914-2.082 29.375,2.707 20.625,8.75 42.5,13.336 62.289,16.043 4.586.625 4.586.625 9.168,2.293 3.332,1.457 6.668,3.539 9.168,6.25 9.789,7.082 20.414,6.457 25.832-5.625 5.625-17.086-6.457-25.211-21.043-30.836-30.414-13.957-59.375-30.625-91.664-40.207" fill="#96b497"/>
   <path d="m270.418,274.793c21.875,3.332 44.375,2.082 65.625,10.207 8.332,3.125 17.082,7.918 26.25,8.332 4.164.211 9.164-.832 10.414-5.832-3.539,2.082-7.707,2.707-11.875,2.918-8.957.414-17.707-4.586-26.457-8.543-18.543-7.918-39.375-7.5-59.168-9.582-1.457,1.039-3.125,1.664-4.789,2.5" fill="#829c83"/>
   <path d="m317.5,285c-8.75-1.668-17.293-2.293-26.043-2.707 19.375,8.332 40.211,13.539 61.25,15.832-6.457-4.168-13.539-7.5-20.625-9.793 3.75,2.293 7.5,5 11.461,7.086-12.918-3.125-26.043-5.211-38.336-10.418 4.168-1.043 8.125.832 12.293,0" fill="#829c83"/>
   <path d="m393.75,304.168c-2.082-6.875-8.332-13.125-16.25-12.5-4.375.207-8.957,1.039-12.5,3.75-2.707,1.875-4.168,5.414-7.918,5.625-24.164-3.543-48.332-8.75-71.039-18.336-7.918-3.332-17.293-5.832-25.836-3.332-4.582,1.25-9.375.625-14.375,1.043-1.875.207-3.539.207-5.625.414-2.082-.414-4.375-1.25-6.039-2.289-2.918-.836-4.793-1.875-6.043-3.336-.832,0-1.457,1.043-.832,1.875 4.164,3.543 9.582,5.418 15.414,5.836 5,.207 10.211,1.039 15.211-.625 7.914-2.918 17.914-1.875 29.375,2.914 20.625,8.75 42.289,13.336 62.289,16.043 4.586.625 4.586.625 8.961,2.293 3.539,1.457 6.664,3.539 9.375,6.25 9.789,7.082 20.414,6.457 25.832-5.625" fill="#abcfad"/>
   <path d="m227.5,277.5c-1.457-1.25-2.918-2.918-3.957-4.582 1.875,1.039 3.125,1.875 4.789,2.5-.832.207-1.457,1.039-.832,2.082" fill="#444f58"/>
   <path d="m226.668,270.832c-1.875-1.25-3.543-2.914-4.586-5.207 1.461,1.668 2.918,2.5 5,2.707-1.25.211-1.25,1.461-.414,2.5" fill="#444f58"/>
   <path d="m229.375,265.207c-2.082-.625-3.75-2.289-4.375-4.164 1.25.832 2.707,1.457 4.168,1.875-.836.207-.625,1.457.207,2.289" fill="#444f58"/>
   <path d="m270.418,274.793-3.336-.625c-6.664-2.711-13.125-3.336-19.375-4.375-2.5-.625-5-1.25-7.5-2.086-.832-.832-2.082-1.25-4.164-1.664-1.043-1.668-4.168-3.336-7.086-2.918-1.457-.418-2.707-1.043-3.957-2.082 .625,2.082 2.082,3.539 4.168,4.164 1.457,1.875 3.957,2.918 6.25,3.336 1.457,1.664 3.957,3.125 6.25,3.539-1.043.211-2.293.211-3.543-.207-.625-.418-2.293-.832-3.75-.625-1.457-2.082-4.375-3.543-7.5-2.918-1.875-.207-3.332-1.039-4.793-2.707 1.043,2.293 2.711,3.957 4.375,5.207 5.418,3.543 13.125,3.75 18.336,7.918-1.461,0-3.125.207-4.586.625-1.039-1.043-2.914-1.875-5.414-2.293-1.461-1.457-4.168-2.5-6.668-1.875-1.668-.625-2.707-1.25-4.793-2.5 1.25,1.875 2.5,3.336 4.168,4.586 3.957,3.539 9.375,5.414 15.207,5.625 5,.207 10.211,1.25 15.211-.418 7.914-3.125 17.914-2.082 29.375,2.707 20.625,8.75 42.5,13.336 62.289,16.043 4.586.625 4.586.625 9.168,2.293 3.332,1.457 6.668,3.539 9.168,6.25 9.789,7.082 20.414,6.457 25.832-5.625 5.625-17.086-6.457-25.211-21.043-30.836-30.414-13.957-59.375-30.625-91.664-40.207" fill="none" stroke="#434e43" stroke-width=".625"/>
   <path d="m228.957,263.125c-.832,0-.625,1.25.211,2.082" fill="none" stroke="#434e43" stroke-width=".625"/>
   <path d="m226.875,268.332c-1.25.211-1.25,1.461-.418,2.5" fill="none" stroke="#434e43" stroke-width=".625"/>
   <path d="m228.125,275.207c-.832.211-1.25,1.043-.625,2.086" fill="none" stroke="#434e43" stroke-width=".625"/>
   <path d="m501.25,322.918c-42.707-9.375-41.668,18.539-18.125,17.914 14.793-.207 29.582-1.457 44.168-3.332 28.125-3.75 53.125.207 72.289,11.457 4.793,2.918 7.711,9.586 7.918,18.543 0,6.668 2.918,9.375 8.125,7.082 3.957-1.664 6.043-2.707 9.582-4.164 3.125.625 3.543.207 3.336-1.875-.418-3.75 1.664-7.086 1.25-10.625-.836-7.711-2.086-12.293-9.168-10.211-5.418,1.875-11.668,1.043-17.5-2.914-30.625-19.586-67.918-14.586-101.875-21.875" fill="#96b497"/>
   <path d="m468.332,326.668c-4.582,6.039 1.668,14.582 14.793,14.164 14.793-.207 29.582-1.457 44.168-3.332 28.125-3.75 53.125.207 72.289,11.457 4.793,2.918 7.711,9.586 7.918,18.543 .207,6.668 2.918,9.375 8.125,7.082 3.957-1.664 6.25-2.707 9.793-4.164 2.914.625 3.332.207 3.125-1.875-.211-.836 0-1.668.207-2.5 .418-6.25.207-15.625-7.293-15-2.707.207-2.914,1.875-1.25,3.957 2.5,3.332 4.586,7.082 6.043,11.043-33.332-42.918-98.543-29.586-157.918-39.375" fill="#abcfad"/>
   <path d="m472.082,323.75c5.836-.625 11.668.418 17.293,1.668 54.793,9.375 86.457-1.043 129.168,30.414-3.961-3.75-4.168-5.207 1.25-5.832 6.25-.832 8.332,1.668 10.207,8.125-1.043-7.707-2.293-12.293-9.168-10.207-5.625,1.875-11.664,1.039-17.5-2.918-30.832-19.793-68.125-14.793-102.082-22.082-14.582-3.125-23.957-2.086-29.168.832" fill="#829c83"/>
   <path d="m501.25,322.918c-42.707-9.375-41.668,18.539-18.125,17.914 14.793-.207 29.582-1.457 44.168-3.332 28.125-3.75 53.125.207 72.289,11.457 4.793,2.918 7.711,9.586 7.918,18.543 0,6.668 2.918,9.375 8.125,7.082 3.957-1.664 6.043-2.707 9.582-4.164 3.125.625 3.543.207 3.336-1.875-.418-3.75 1.664-7.086 1.25-10.625-.836-7.711-2.086-12.293-9.168-10.211-5.418,1.875-11.668,1.043-17.5-2.914-30.625-19.586-67.918-14.586-101.875-21.875z" fill="none" stroke="#434e43" stroke-width=".625"/>
   <path d="m333.75,260c-2.5,4.168-3.332,9.375-1.457,14.168 2.289,6.457 10,8.125 16.039,6.664 2.293-1.25 5-.414 7.711,2.918 2.5,2.707 4.789,6.043 6.25,9.582 5.207,9.168 10.832,20.836 22.5,22.711 10.207,1.664 22.082-5.625 21.039-17.5-.832-9.586-6.664-18.125-15.414-20.418-8.961-2.918-14.375-10.625-22.711-14.582-.625-1.043-1.664-1.668-2.707-2.293-.625-1.668-1.875-3.125-3.543-3.957-8.125-5.418-21.25-6.668-27.707,2.707" fill="#96b497"/>
   <path d="m333.957,260c7.293-6.25 20-5.832 27.5-.418 2.086,1.461 4.793,3.336 4.586,6.043 1.25,0 3.332.625 3.125,2.293 7.707,2.5 11.039,10.207 17.707,12.707 3.75,1.668 7.918,2.293 12.293,2.918-2.5-2.5-5.418-4.168-8.75-5.211-8.961-2.914-14.375-10.625-22.711-14.582-.625-1.043-1.457-1.875-2.707-2.293-.625-1.875-1.668-3.332-3.332-4.164-8.336-5.418-21.25-6.875-27.711,2.707" fill="#829c83"/>
   <path d="m332.293,274.168c2.289,6.664 10.207,8.125 16.039,6.664 2.293-1.25 5-.207 7.918,2.918 2.5,2.918 4.582,6.043 6.043,9.582 5.414,9.168 11.039,20.836 22.707,22.711 3.332.625 6.875.207 10.207-1.25-9.789-10.836-13.125-26.875-21.25-38.961-2.082-3.125-5-2.914-7.707.836 .625-2.086.832-3.125 1.457-5.418-1.039.625-1.875,1.668-2.5,2.707-.832,1.461-2.289,1.043-1.25-1.25 .836-1.875.836-4.582-.414-6.664-.211,2.289-1.25,4.375-2.711,6.25-1.25,1.457-2.289.832-1.25-.625 1.461-2.5 1.875-5.211 1.043-7.918-1.043,3.543-2.918,6.25-5.207,7.918 1.25-4.168 1.039-8.75-.211-12.711l-.625-.832c1.461,12.293-12.707,17.082-22.289,16.043" fill="#abcfad"/>
   <path d="m333.75,260c-2.5,4.168-3.332,9.375-1.457,14.168 2.289,6.457 10,8.125 16.039,6.664 2.293-1.25 5-.414 7.711,2.918 2.5,2.707 4.789,6.043 6.25,9.582 5.207,9.168 10.832,20.836 22.5,22.711 10.207,1.664 22.082-5.625 21.039-17.5-.832-9.586-6.664-18.125-15.414-20.418-8.961-2.918-14.375-10.625-22.711-14.582-.625-1.043-1.664-1.668-2.707-2.293-.625-1.668-1.875-3.125-3.543-3.957-8.125-5.418-21.25-6.668-27.707,2.707z" fill="none" stroke="#434e43" stroke-width=".625"/>
   <path d="m365.21 270.62c1.043-3.125 1.043-6.457-0.207-9.375" fill="none" stroke="#434e43" stroke-width=".625"/>
   <path d="m368.96 269.38c0.625-2.082 0-4.168-1.25-5.832" fill="none" stroke="#434e43" stroke-width=".625"/>
   <path d="m338.75,175.832c-1.457,22.5-7.293,44.586-9.582,67.086-.836,10 .625,18.75 3.539,26.664l12.711-10.207-2.5-80-4.168-3.543" fill="#abcfad"/>
   <path d="m348.957,237.293c0-7.711-3.125-15.418-3.125-23.125 0-10.625 1.043-21.461-1.664-31.875-1.461-4.793-3.125-5-3.336.414-.207,3.75-2.289,7.086-1.875,11.043 .836,11.043-4.582,21.875-3.957,33.125 .418,6.457-2.293,12.707-1.875,18.957 .832,12.918 15.832,13.336 15.832-8.539" fill="#c84b14"/>
   <path d="m346.043,198.957c-1.461-9.582-6.875-9.789-6.461,2.293 .211,10-4.582,19.375-3.539,29.375 .832,7.918-2.711,15.207 1.457,23.543l2.293,2.707 8.332-2.5 2.082-13.332-.625-16.043-2.082-7.5-1.457-18.543" fill="#f46e47"/>
   <path d="m347.5,226.043c-.832-3.961-1.668-7.918-1.668-11.875 0-5 .211-10.211.211-15.211-1.461-9.789-6.875-10.207-6.668,2.293 .418,8.332-2.918,16.25-3.543,24.582 1.043,1.875 3.543,2.293 5.418.625 2.082,1.25 4.582,1.25 6.25-.414" fill="#f6845a"/>
   <path d="m355.418,271.668c5-3.336 7.5-12.293 5.414-20.211-2.914-11.875-8.125-23.539-8.75-36.039-.414-13.961-5-27.711-8.539-41.043-1.875-6.668-4.168-6.668-4.793,1.25-.207,2.293-.418,4.375-.625,6.668l2.707.414c.211-5.414 1.875-5.207 3.336-.414 2.707,10.414 1.664,21.25 1.664,31.875 0,7.707 2.918,15.207 2.918,23.125 0,9.164-2.5,14.375-5.418,16.457l-12.707,8.543c.625,2.5 1.25,5 2.293,7.289 3.125,8.543 11.457,9.586 22.5,2.086" fill="#abcfad"/>
   <path d="m355.418,271.668c5.207-3.336 7.707-12.293 5.625-20.211-2.918-11.875-8.336-23.539-8.75-36.039-.625-13.961-5.211-27.711-8.961-41.043-1.457-5.832-3.539-6.668-4.375-1.457 .836-2.711 2.5-1.668 3.75,2.289 3.125,8.125 3.961,19.793 5,24.586 3.125,13.957.836,28.539 7.5,41.457 4.586,9.168 5.836,21.875.211,30.418" fill="#96b497"/>
   <path d="m358.96 267.92c2.5-4.168 3.336-10.625 2.086-16.461-3.125-11.875-8.336-23.539-8.961-36.039-0.414-13.961-5.207-27.711-8.75-41.043-1.457-5.832-3.539-6.668-4.375-1.457 0.836-2.711 2.5-1.668 3.75 2.289 2.918 8.125 3.75 19.793 4.793 24.793 2.5 8.957 2.918 19.582 5.418 29.375 3.125 12.5 10.414 25.418 6.039 38.543" fill="#829c83"/>
   <path d="m347.707,252.293c2.918-2.711 2.918-7.086 3.336-10.836 .625,3.336.207,6.875-1.461,10l-1.875.836" fill="#829c83"/>
   <path d="m352.293,243.957c0,2.5.207,5.211-1.043,7.293-.625.832.625,2.5 1.25.832 1.043-2.5.207-5.414-.207-8.125" fill="#829c83"/>
   <path d="m355.625,271.668c5-3.336 7.5-12.293 5.418-20.211-2.918-11.875-8.336-23.539-8.75-36.039-.625-13.961-5.211-27.711-8.75-41.043-1.668-6.668-4.168-6.668-4.793,1.25-1.457,22.707-7.293,44.793-9.582,67.293-.836,10 .625,18.75 3.539,26.664" fill="none" stroke="#434e43" stroke-width=".625"/>
   <path d="m343.332,253.543c2.918-1.875 5.418-7.293 5.418-16.25 0-7.918-2.918-15.418-2.918-23.125 0-10.625 1.043-21.461-1.664-31.875-1.461-4.793-3.125-5-3.336.414-.207,3.75-2.289,7.086-1.875,11.043 .836,11.043-4.375,21.668-3.75,33.125 .211,6.457-2.5,12.5-1.875,18.957 .418,6.668 4.793,10.211 8.75,8.543" fill="none" stroke="#434e43" stroke-width=".625"/>
   <path d="m340.42 232.5c-1.043 7.707-0.418 15 1.664 21.875" fill="none" stroke="#434e43" stroke-width=".625"/>
   <path d="m348.957,237.5c-2.707-1.25-4.789-3.332-6.039-5.832 2.5,2.5 5.207,2.082 6.875,2.914 1.875.836 1.457,3.961-.836,2.918" fill="#fffccc"/>
   <path d="m347.918,226.25c-1.25-2.5-3.125-5-5.418-6.668 3.332.418 5.832,2.711 7.293,4.793 1.25,2.082-1.043,3.332-1.875,1.875" fill="#fffccc"/>
   <path d="m346.043,214.168c-1.461-1.875-2.293-3.961-4.168-5.625 2.918,1.25 5.418,3.75 6.25,5 .832,1.039-1.043,2.289-2.082.625" fill="#fffccc"/>
   <path d="m343.125,200.625c1.875,1.25 3.332,2.918 4.168,5 .625,1.457-1.043,2.293-1.668.625s-1.25-3.75-2.5-5.625" fill="#fffccc"/>
   <path d="m342.293,194.582c2.707.625 4.582,2.5 5.625,4.375 .625,1.043-1.25,1.875-1.668.418-.832-1.875-2.082-3.75-3.957-4.793" fill="#fffccc"/>
   <path d="m347.293,192.082c-.625-1.664-2.5-3.75-4.375-4.789 1.457,1.25 2.289,3.539 2.5,5.207 .414,2.082 2.707,1.668 1.875-.418" fill="#fffccc"/>
   <path d="m346.668,186.043c-.418-2.086.414-4.375 1.457-5.625-2.082.625-3.332,3.125-3.125,5.207 .418,1.668 1.875,1.457 1.668.418" fill="#fffccc"/>
   <path d="m344.582,176.668c.211-2.5.625-5.211 2.086-7.086-2.293,1.461-3.75,4.168-3.75,6.668-.211,1.875 1.664,1.875 1.664.418" fill="#fffccc"/>
   <path d="m339.793,176.25c-1.043-2.082-3.75-4.168-6.25-4.582 2.082,1.25 3.539,3.539 4.582,5.832 .832,1.25 2.5.207 1.668-1.25" fill="#fffccc"/>
   <path d="m339.582,181.457c-1.457-1.875-3.75-3.125-6.25-3.332 2.293.832 3.75,3.125 5,5 .836,1.043 2.293-.418 1.25-1.668" fill="#fffccc"/>
   <path d="m338.332,187.918c-1.457-1.461-3.332-2.918-5.625-3.543 2.086.625 2.918,2.918 4.168,4.375 1.043,1.043 2.082,0 1.457-.832" fill="#fffccc"/>
   <path d="m337.92 193.33c-1.668-1.664-3.961-3.125-6.043-3.75 2.293 1.668 3.125 3.336 5 5 0.832 1.043 1.875-0.414 1.043-1.25" fill="#fffccc"/>
   <path d="m337.29 201.25c-1.043-2.082-3.125-3.543-6.043-4.582 2.5 2.082 3.125 4.164 4.375 5.832 1.043 1.043 2.5 0 1.668-1.25" fill="#fffccc"/>
   <path d="m335,210.418c-1.043-1.875-3.543-3.961-6.25-5 2.5,1.457 3.543,5 5.207,6.664 1.043.625 1.875-.207 1.043-1.664" fill="#fffccc"/>
   <path d="m334.582,218.75c-.832-1.668-3.539-2.082-4.789-3.75 1.039,1.875 2.707,3.75 3.332,5.418 .625,1.457 2.918.207 1.457-1.668" fill="#fffccc"/>
   <path d="m332.71 228.12c-1.875-1.043-3.332-2.918-4.375-5 0 2.918 1.668 5.418 3.75 7.293 1.043 1.039 2.293-1.25 0.625-2.293" fill="#fffccc"/>
   <path d="m336.668,281.668c-6.461,1.664-10.836-1.25-18.543-11.668-11.668-16.25-22.293-36.25-28.75-53.75-3.543-8.957-1.043-9.793 3.957-4.793 11.25,11.25 22.918,22.5 36.043,31.668 10,7.082 14.793,8.957 17.082,6.043l6.668,5.625 1.043-2.086c3.75,3.961 7.707,9.375 6.25,15.211-1.668,4.789-5.211,9.164-9.793,11.457-.625.625-1.457,1.25-2.082,1.668-1.461,1.039-2.711,1.664-4.586,1.875-2.5.207-5.207,0-7.289-1.25" fill="#abcfad"/>
   <path d="m360.62 263.96c-1.25 3.336-2.918 6.043-5.207 7.711 0.625-6.25 1.25-13.125-1.25-18.961 2.914 3.125 5.625 6.875 6.457 11.25" fill="#96b497"/>
   <path d="m332.5 275.83c-16.457-14.164-21.875-35.832-34.375-52.914 12.082 8.539 21.875 18.957 28.75 31.875 3.957 7.082 1.668 14.582 5.625 21.039" fill="#96b497"/>
   <path d="m337.293,260c-1.461,2.082-2.293,1.668-1.875-2.082-3.543,0-2.086-2.918-4.168-4.586-1.668-1.457-3.332-3.125-4.582-4.789-1.25-1.461-1.043-1.461.832-.211 2.5,1.875 5.418,3.336 7.918,5.211 1.25,2.914 3.75,2.914 6.457,2.914-2.082.418-3.543,1.668-4.582,3.543" fill="#96b497"/>
   <path d="m338.543,275.418c2.5,3.957 6.664,2.707 9.789-1.043 3.336-3.75 5.211-9.375 4.793-13.543-.418-3.957-2.082-5.625-5.625-3.957 1.668,0 2.918,1.457 2.918,3.125-2.293-2.082-6.043-1.668-8.125.625 4.164-2.082 8.75.418 8.75,4.793 0,3.957-2.711,8.332-7.086,9.164-4.582.836-6.664-4.789-5.207-8.539-1.875,2.5-1.875,6.457-.207,9.375" fill="#96b497"/>
   <path d="m289.38 216.25c-3.543-8.957-1.043-9.793 3.957-4.793 11.25 11.25 22.918 22.5 35.836 31.461 10.207 7.289 14.789 8.957 17.289 6.25-4.375 5.207-10.207 1.875-14.789-1.461-13.75-10.207-25.836-21.039-39.168-32.5-2.707-2.289-3.543-1.875-3.125 1.043" fill="#96b497"/>
   <path d="m346.46 249.17c-2.289 2.914-7.082 1.039-17.082-6.043-13.125-9.168-24.793-20.418-36.043-31.668-5-5-7.5-4.164-3.957 4.793 6.457 17.5 17.082 37.5 28.75 53.75 7.707 10.418 12.082 13.332 18.543 11.668" fill="none" stroke="#434e43" stroke-width=".625"/>
   <path d="m333.33 278.54c1.875 3.75 6.461 4.789 10.625 4.375 2.711-0.418 4.586-1.668 6.668-3.543" fill="none" stroke="#434e43" stroke-width=".625"/>
   <path d="m336.25 273.96c0 3.961 3.543 6.461 6.875 5.625" fill="none" stroke="#434e43" stroke-width=".625"/>
   <path d="m334.79 246.88c-1.043-2.918-1.668-6.25-1.25-9.375-1.25 2.293-1.668 4.793-2.086 7.293 0 1.875 4.168 3.75 3.336 2.082" fill="#fffccc"/>
   <path d="m328.75 243.33c-1.25-2.707-1.875-5.832-1.457-9.164-1.043 2.289-1.25 4.789-1.461 7.289 0 1.875 3.75 3.75 2.918 1.875" fill="#fffccc"/>
   <path d="m323.543,238.75c-.418-2.918.207-5.832 1.875-8.332-2.086,1.457-3.543,3.957-3.961,7.082-.207,1.668 2.5,2.918 2.086,1.25" fill="#fffccc"/>
   <path d="m319.793,235.418c-1.043-2.918-1.461-5.836-1.043-8.75-1.043,2.082-1.875,5.207-1.457,7.914 .414,1.668 3.332,2.5 2.5.836" fill="#fffccc"/>
   <path d="m315.625,231.668c-.832-2.5-.832-5.836 0-8.543-1.668,2.082-2.707,4.582-2.707,7.707-.211,2.711 3.539,3.125 2.707.836" fill="#fffccc"/>
   <path d="m311.88 229.38c-0.625-3.332-1.25-6.875-0.418-10.207-1.25 2.289-1.875 5.414-1.875 7.5 0 3.125 2.711 4.164 2.293 2.707" fill="#fffccc"/>
   <path d="m308.12 226.04c-1.25-4.586-1.875-8.961-1.043-12.918-1.25 2.707-2.082 6.25-1.664 10.207 0.207 2.293 3.125 3.961 2.707 2.711" fill="#fffccc"/>
   <path d="m302.918,221.043c0-4.168-.836-7.5-.836-11.461-.832,3.75-.832,6.25-1.457,9.168-.207,1.25 2.082,4.375 2.293,2.293" fill="#fffccc"/>
   <path d="m299.168,217.293c0-3.75-1.668-7.711-2.293-10.836-.418,2.918.418,5.836-.418,8.336-.625,1.664 2.711,4.164 2.711,2.5" fill="#fffccc"/>
   <path d="m293.75,212.082c-.418-2.914-2.918-5.625-3.332-9.164-.211,2.5.625,4.789 1.039,6.875 .211,2.289 2.711,4.164 2.293,2.289" fill="#fffccc"/>
   <path d="m288.75,208.543c-1.25-2.5-2.918-5-3.957-7.5 .625,3.125 1.664,6.664 2.914,9.582 0-1.457.211-2.082 1.043-2.082" fill="#fffccc"/>
   <path d="m355.42 271.67c0.625-6.25 1.25-13.336-1.461-19.168 5.836 4.793 4.793 13.332 1.461 19.168" fill="#829c83"/>
   <path d="m338.75 265.83c-2.082 6.25 3.332 12.086 9.375 6.461-5.625 3.332-9.582-0.211-9.375-6.461" fill="#829c83"/>
   <path d="m318.125,249.793c4.375,5.414 6.457,3.957 2.293-.418-.418.625-1.043,1.25-2.293.418" fill="#829c83"/>
   <path d="m344.168,262.5c-2.086.832-3.125,3.957-2.918,6.668 .418,2.289 3.332,2.914 5.207,1.664 1.25-1.039 2.918-3.332 2.5-6.039-.207-1.875-2.082-3.336-4.789-2.293" fill="#fab20b"/>
   <path d="m342.29 268.12c-0.211 2.293 1.457 2.707 2.707 1.875 1.457-1.25 2.5-3.125 2.5-4.793-0.207-1.664-2.293-2.289-3.543-1.25-1.039 1.043-1.457 2.711-1.664 4.168" fill="#1e1200"/>
   <path d="m344.582,269.375c.625.418 1.668-1.043.836-1.457-.625-.418-1.668,1.25-.836,1.457" fill="#fff"/>
   <path d="m366.457,277.707c-5.625,2.711-6.039,10.418-4.164,15.418 2.082,5.625 2.914,11.457 5.414,16.668 7.5,14.375 23.543,22.5 37.918,25 67.707,11.664 72.293,6.457 80.207-16.043-1.25-.418-2.5-.832-3.539-1.457-9.586-3.961-19.586-6.875-28.75-11.461-5.418-2.707-9.586-7.289-13.75-11.664l-1.461-1.461c-4.375-4.375-8.75-8.539-15-10.414-10.832-3.125-22.082-.625-32.914-4.168-7.918-1.668-17.293-3.543-23.961-.418" fill="#96b497"/>
   <path d="m380.832,276.25c1.875,1.668 3.75,3.125 6.043,3.957 15.207,6.25 35.418-.207 45,16.668 8.957,15.418 29.375,15.625 45,21.457l4.582,1.668 4.375-1.25c-1.25-.418-2.5-.832-3.539-1.457-9.586-3.961-19.586-6.875-28.75-11.461-5.418-2.707-9.586-7.289-13.75-11.664l-1.461-1.461c-4.164-4.582-8.75-8.539-15-10.414-10.832-3.336-21.875-.625-32.914-4.168-3.125-.832-6.25-1.457-9.586-1.875" fill="#829c83"/>
   <path d="m373.96 276.04c-2.707 0-5.207 0.625-7.5 1.664-5.625 2.5-6.039 10.211-4.164 15.418 2.082 5.418 2.914 11.457 5.625 16.668 7.289 14.375 23.332 22.5 37.707 25 15 2.5 26.875 4.375 36.457 5.207-16.457-7.082-25.625-11.668-35.832-16.668-19.168-9.375-21.668-31.664-32.293-47.289" fill="#abcfad"/>
   <path d="m362.29 293.12c2.082 5.418 2.914 11.25 5.414 16.457 7.5 14.375 23.543 22.5 37.918 25 20.625 3.543 35.418 5.625 46.25 6.043" fill="none" stroke="#434e43" stroke-width=".625"/>
   <path d="m485.832,318.543c-1.25-.418-2.5-.836-3.539-1.461-9.586-3.75-19.586-6.875-28.75-11.25-5.418-2.914-9.586-7.289-13.75-11.875l-1.461-1.25c-4.375-4.582-8.75-8.539-15.207-10.414-10.625-3.336-21.875-.625-32.707-4.168" fill="none" stroke="#434e43" stroke-width=".625"/>
   <path d="m506.46 371.04c-11.875-6.461-28.125-2.5-35.832 9.375-4.168 6.664-5.832 15.207-4.168 22.914 1.25 5.418 4.375 10.418 9.375 13.961 42.293 32.5 91.668 52.914 139.59 75.207 88.957 35 183.33 53.957 278.96 56.25-101.46-22.707-200.62-57.082-291.67-107.92-34.789-19.375-63.957-46.664-96.25-69.789" fill="#96b497"/>
   <path d="m466.46 390.62c-1.25 8.957 2.711 18.332 11.461 23.543 63.75 38.332 129.79 74.164 201.25 95.832 35.207 11.043 71.039 20 107.5 24.793-40.836-7.5-81.461-17.086-120.62-31.043-66.043-22.5-125.62-59.168-187.09-91.25-6.875-3.543-10.832-12.293-12.5-21.875" fill="#829c83"/>
   <path d="m466.46 403.33c1.25 5.418 4.168 10.418 9.375 13.961 42.293 32.5 91.668 52.914 139.38 75.207 89.168 35 183.54 53.957 279.17 56.25-56.043-3.543-112.08-9.793-166.88-22.918-37.5-9.375-74.793-20.832-110.83-35.207-48.961-20.418-96.043-45-140.21-74.582-4.582-3.125-8.125-7.5-10-12.711" fill="#abcfad"/>
   <path d="m506.46 371.04c-11.875-6.461-28.125-2.5-35.832 9.375-4.168 6.664-5.832 15.207-4.168 22.914 1.25 5.418 4.375 10.418 9.375 13.961 42.293 32.5 91.668 52.914 139.59 75.207 88.957 35 183.33 53.957 278.96 56.25-101.46-22.707-200.62-57.082-291.67-107.92-34.789-19.375-63.957-46.664-96.25-69.789z" fill="none" stroke="#434e43" stroke-width=".625"/>
   <path d="m394.168,321.25c0,2.918 2.289,5.207 5.207,5.625 1.875,2.707 3.957,5.207 6.043,7.707 13.332,15.836 27.289,30.836 38.75,48.125 6.25,9.375 10.832,20 19.789,27.293-1.039,7.5-.207,15 4.586,21.043 1.664,2.082 3.957,3.539 6.664,3.957-2.914-1.043-3.75-3.125-4.164-5.207-.625-1.875-.836-4.168-2.5-5.625-.418-2.711-.418-5.836 0-8.125 2.289,6.039 3.539,12.914 8.75,18.125 1.457,2.082 4.375,2.914 6.875,2.707-2.086-.625-4.375-2.082-5.211-4.168 1.043-3.539-2.289-4.789-3.332-7.5-.207-2.082-.418-3.957-.832-6.039 4.582,2.707 3.957,9.164 7.5,12.707 1.039,2.5 4.375,3.75 6.875,3.332-2.293-.625-4.586-1.875-5.418-4.375 .625-2.289-.207-5-2.293-6.457-.625-3.332-2.289-6.043-4.375-8.75l29.586-44.375c-20.418-15.625-25.625-24.582-28.336-45.625-.625-6.25-1.875-7.918-8.957-9.375-62.918-13.332-75.832-7.918-75.207,5" fill="#96b497"/>
   <path d="m401.46 315.83c3.336 1.668 6.043 4.168 9.375 5.836 9.586 4.789 19.168 10 28.336 15.625 6.25 3.75 6.25 3.75 8.332 11.457 2.918 11.668 5 24.168 7.5 36.25 2.5 11.875 2.5 11.875 10.418 19.582 3.75 3.75 8.957 7.711 12.5 9.793l1.25-1.668c-4.586-2.289-11.461-8.539-16.043-13.332-2.707-2.918-3.75-5.207-5.207-12.5-1.668-8.543-5-25.207-6.668-33.75-2.293-13.543-3.332-15-10.832-18.543-10-4.789-25.211-13.957-38.961-18.75" fill="#829c83"/>
   <path d="m410.21 332.5c13.336 15.207 23.961 32.5 36.668 48.125-3.125-10-6.457-20-9.168-30 0 5.418 1.875 10.625 2.918 15.832-7.293-9.375-14.582-18.75-22.293-27.5 5.211 2.086 10.211 4.375 15.418 5.836-7.707-4.375-15.625-8.336-23.543-12.293" fill="#829c83"/>
   <path d="m395.418,315.207c-1.043,1.668-1.25,3.75-1.25,6.043 0,2.918 2.289,5.207 5.207,5.832 1.875,2.5 3.957,5 6.043,7.5 13.332,15.836 27.289,31.043 38.75,48.125 6.25,9.375 10.832,20 19.789,27.293-1.039,7.5-.207,15 4.586,21.043 .625.414 1.039.414 1.25.414-3.125-3.957-4.168-9.582-3.75-15 .414-6.457.414-8.332-2.293-10-6.668-4.164-8.957-11.875-13.125-17.914-15.207-22.5-33.543-42.293-50.418-63.336-1.875-2.289-1.039-3.125 1.043-2.289l4.168,2.289c2.082.836 2.914-1.039.625-1.875-4.168-2.082-7.711-5-10.625-8.125" fill="#abcfad"/>
   <path d="m468.543,416.043c2.289,6.039 3.539,12.914 8.332,17.5 .625.207 1.25.207 1.668,0-1.25-1.25-2.086-2.711-2.918-4.375-2.293-4.168-2.5-8.75-5-12.918l-2.082-.207" fill="#abcfad"/>
   <path d="m474.793,419.168c4.375,2.707 3.75,9.164 7.5,12.707 .414.207.625.207 1.039,0-3.125-4.168-3.539-10.418-7.5-14.168l-1.039,1.461" fill="#abcfad"/>
   <path d="m468.54 430.83c1.664 2.086 3.957 3.75 6.457 4.168-2.918-1.25-3.543-3.332-4.168-5.418 0.211 1.043-0.832 2.086-2.289 1.25" fill="#444f58"/>
   <path d="m476.668,433.543c.207,0 .414.207.625.414 1.457,2.086 4.375,3.125 6.875,2.918-2.293-.625-4.375-2.293-5.211-4.168-.207.836-1.039,1.25-2.289.836" fill="#444f58"/>
   <path d="m482.293,431.668c1.039,2.707 4.375,3.957 6.875,3.539-2.293-.625-4.586-2.082-5.418-4.582-.207.832-.625,1.457-1.457,1.043" fill="#444f58"/>
   <path d="m394.168,321.25c0,2.918 2.289,5.207 5.207,5.625 1.875,2.707 3.957,5.207 6.043,7.707 13.332,15.836 27.289,30.836 38.75,48.125 6.25,9.375 10.832,20 19.789,27.293-1.039,7.5-.207,15 4.586,21.043 1.664,2.082 3.957,3.539 6.664,3.957-2.914-1.043-3.75-3.125-4.164-5.207-.625-1.875-.836-4.168-2.5-5.625-.418-2.711-.418-5.836 0-8.125 2.289,6.039 3.539,12.914 8.75,18.125 1.457,2.082 4.375,2.914 6.875,2.707-2.086-.625-4.375-2.082-5.211-4.168 1.043-3.539-2.289-4.789-3.332-7.5-.207-2.082-.418-3.957-.832-6.039 4.582,2.707 3.957,9.164 7.5,12.707 1.039,2.5 4.375,3.75 6.875,3.332-2.293-.625-4.586-1.875-5.418-4.375 .625-2.289-.207-5-2.293-6.457-.625-3.332-2.289-6.043-4.375-8.75" fill="none" stroke="#434e43" stroke-width=".625"/>
   <path d="m506.67 371.25c-20.418-15.625-25.625-24.582-28.336-45.625-0.625-6.25-1.875-7.918-8.957-9.375-6.457-1.457-12.5-2.707-17.918-3.543" fill="none" stroke="#434e43" stroke-width=".625"/>
   <path d="m497.707,316.668c1.461-8.125 2.086-16.043 3.543-24.168 1.043-5.207 2.082-6.043 5.832-6.043 3.336-.207 6.25-2.082 7.918-5 1.457-.207 3.543-.832 5-1.664 1.668.207 3.75-.418 5.207-1.25 .625-.625.836-1.875-.414-3.125-2.086-.418-4.586,0-6.461.832 1.461-.832 2.711-2.082 3.543-2.707 1.668-.418 3.543-1.25 4.582-3.125 0-.418 0-1.25-1.039-1.668-.836,0-2.293.418-3.75,1.043 1.875-1.25 3.75-3.125 4.375-4.793 0-.625-.211-1.043-1.043-1.25-2.082.625-5.832,3.543-8.75,6.25 1.043-1.25 1.875-2.707 2.293-4.168 1.664-.414 3.332-2.289 3.957-3.957 .207-.625-.207-1.25-1.043-1.457-3.75,1.25-6.875,4.375-8.957,7.5l1.25-2.711c1.043-1.039 2.293-3.125 2.5-4.375 0-.625-.625-1.039-1.668-.832l-1.875,1.875c-4.164,4.582-7.5,10-10.207,15.418-5,7.707-5,7.707-7.082,14.582-2.086,6.875-3.543,14.168-4.586,21.25-.207,1.043-.414,1.875-.832,2.5-.207,2.082 1.457,3.75 3.332,3.957 1.875.211 4.168-.832 4.375-2.914" fill="#96b497"/>
   <path d="m493.332,319.582c1.875.211 4.168-.832 4.168-2.914 1.457-8.125 2.293-16.043 3.75-24.168 1.043-5.207 2.082-6.043 5.625-6.25 3.543,0 6.25-1.875 8.125-4.793 1.25-.207 3.543-.832 5-1.664 1.457,0 3.75-.625 5.207-1.25 .211-.418.418-1.043.418-1.461-4.582,1.461-10,.836-13.332,4.586-6.875,0-10.625,2.914-13.125,10.625-2.293,6.875-3.961,13.75-3.961,20.625-.414,2.289 0,5-1.875,6.664" fill="#abcfad"/>
   <path d="m519.168,273.125-.836,2.918c1.461-.625 2.711-1.875 3.336-2.5 1.875-.418 3.539-1.461 4.582-3.125 .207-.211.207-.625-.207-1.043-2.5.832-4.586,2.5-6.875,3.75" fill="#abcfad"/>
   <path d="m519.582,269.168-.414,2.082c.625-.418 1.664-1.043 2.5-1.457 1.875-1.25 3.539-3.125 4.164-4.793 0-.418 0-.625-.207-1.043-1.668,2.293-3.957,3.543-6.043,5.211" fill="#abcfad"/>
   <path d="m516.043,266.668 .207,3.332c1.043-1.25 1.875-2.707 2.293-4.375 1.664-.207 3.125-2.293 3.957-3.957 0-.418 0-.625-.207-1.043-1.875,2.293-3.75,4.582-6.25,6.043" fill="#abcfad"/>
   <path d="m512.082,264.582 .418,3.125 1.043-2.707c1.039-1.043 2.5-2.918 2.707-4.375 0-.207-.207-.625-.625-.625-.418,1.875-2.082,3.332-3.543,4.582" fill="#abcfad"/>
   <path d="m514.582,260.207c1.875-1.457 3.961-2.082 6.461-1.664-1.875.207-3.543,1.039-4.793,2.5 0-.625-.625-1.25-1.668-.836" fill="#444f58"/>
   <path d="m521.457,260.418c1.461-.418 3.336-.625 5-.211-1.457.211-2.914.625-3.957,1.668 .207-.625-.207-1.043-1.043-1.457" fill="#444f58"/>
   <path d="m525,263.75c1.25-.207 2.707.207 4.168,1.25-.836-.418-2.293-.418-3.125.207 0-.625-.211-1.25-1.043-1.457" fill="#444f58"/>
   <path d="m525.418,268.957c2.289-.207 4.375.211 5,2.918-1.043-1.043-2.5-1.25-4.168-1.25 .207-.418 0-1.25-.832-1.668" fill="#444f58"/>
   <path d="m524.793,275.625c2.289.625 4.164,1.875 5,4.375-1.043-1.043-2.918-1.875-4.586-1.25 .418-.625.836-1.875-.414-3.125" fill="#444f58"/>
   <path d="m497.707,316.668c1.461-8.125 2.086-16.043 3.543-24.168 1.043-5.207 2.082-6.043 5.832-6.043 3.336-.207 6.25-2.082 7.918-5 1.457-.207 3.543-.832 5-1.664 1.668.207 3.75-.418 5.207-1.25 .625-.625.836-1.875-.414-3.125-2.086-.418-4.586,0-6.461.832 1.461-.832 2.711-2.082 3.543-2.707 1.668-.418 3.543-1.25 4.582-3.125 0-.418 0-1.25-1.039-1.668-.836,0-2.293.418-3.75,1.043 1.875-1.25 3.75-3.125 4.375-4.793 0-.625-.211-1.043-1.043-1.25-2.082.625-5.832,3.543-8.75,6.25 1.043-1.25 1.875-2.707 2.293-4.168 1.664-.414 3.332-2.289 3.957-3.957 .207-.625-.207-1.25-1.043-1.457-3.75,1.25-6.875,4.375-8.957,7.5l1.25-2.711c1.043-1.039 2.293-3.125 2.5-4.375 0-.625-.625-1.039-1.668-.832l-1.875,1.875c-4.164,4.582-7.5,10-10.207,15.418-5,7.707-5,7.707-7.082,14.582-2.086,6.875-3.543,14.168-4.586,21.25-.207,1.043-.414,1.875-.832,2.5-.207,2.082 1.457,3.75 3.332,3.957 1.875.211 4.168-.832 4.375-2.914z" fill="none" stroke="#434e43" stroke-width=".625"/>
   <path d="m521.67 269.79c-2.293 1.25-4.375 2.914-6.25 4.789" fill="none" stroke="#434e43" stroke-width=".625"/>
   <path d="m512.5 267.92-1.043 1.664" fill="none" stroke="#434e43" stroke-width=".625"/>
   <path d="m518.332,276.25-1.664.418" fill="none" stroke="#434e43" stroke-width=".625"/>
   <path d="m516.25 270-2.082 1.875" fill="none" stroke="#434e43" stroke-width=".625"/>
   <path d="m461.25,280.418c2.082-6.668 2.5-15.211 1.457-23.125 3.125-.836 3.75-4.168 5-6.668 1.043-.832 2.5-2.293 3.543-3.125 .418.207 2.082,0 2.5-.418 1.25.418 2.707.418 3.543-.207 .625-.418 1.25-1.043 1.039-1.875-.832-.832-3.75-.832-5.832-.832 1.457-.418 3.125-1.668 3.543-2.086 1.039.211 3.75-.207 4.582-.625 .832-.625 1.25-1.25.832-2.082-2.914-.418-5.832-.832-8.332.418 .832-.211 1.457-1.043 2.082-1.875 1.875,0 3.961-.625 4.793-1.461 .418-.414.418-1.039-.207-1.457-1.043-.418-2.293-.418-3.75,0 .832-.418 1.875-1.25 1.875-1.668 .414-.625-.211-1.457-1.25-1.457-4.793-.418-8.543,3.543-11.875,6.457 .625-.625 1.457-1.457 1.664-2.707 .625-.625 1.875-2.082 2.293-2.918 1.668-.207 3.543-1.457 4.168-2.5 .207-.414-.418-1.039-1.25-1.25-1.25,0-3.961,1.043-5.211,2.5-4.375,4.168-7.289,10-8.332,17.5-1.25,3.961 0,7.293-.207,11.25 0,5.625-1.668,12.711-4.375,18.336-.418,2.082.832,3.957 2.5,4.375 1.875.625 4.582-.211 5.207-2.5" fill="#96b497"/>
   <path d="m462.082,255c.211.832.418,1.668.418,2.5 3.125-.832 3.75-4.168 5.207-6.668 .836-1.039 2.5-2.5 3.336-3.332 .625.207 2.289,0 2.5-.418 1.25.418 2.914.418 3.75-.207 .414-.207.625-.418.832-.832-2.707-.211-5.207,0-7.918.625-4.164.832-4.375,6.457-8.125,8.332" fill="#abcfad"/>
   <path d="m473.125,241.668-.418,2.5c1.25-.625 2.918-1.668 3.336-2.086 1.039.211 3.75-.207 4.582-.625 .418-.207.625-.625.832-.832-2.707-.625-5.832-.418-8.332,1.043" fill="#abcfad"/>
   <path d="m473.332,237.293-.414,2.5c1.039-.211 1.664-1.043 2.289-1.875 1.875,0 3.75-.625 4.793-1.461 .207-.207.207-.414.207-.625-2.289.418-4.789,0-6.875,1.461" fill="#abcfad"/>
   <path d="m470.832,234.582-.625,2.711c1.668-1.25 3.75-2.086 5.836-2.293 .832-.418 1.664-1.25 1.875-1.668 .207-.207.207-.625 0-1.039-2.293.832-4.793.832-7.086,2.289" fill="#abcfad"/>
   <path d="m466.25,233.543v1.875c.832-.418 2.082-2.086 2.5-2.918 1.457,0 3.543-1.25 3.957-2.293 .211-.207 0-.625-.207-.832-2.5.625-4.582,2.293-6.25,4.168" fill="#abcfad"/>
   <path d="m471.457,228.957c2.293-1.039 5.418-.414 5.625,1.461-1.664-.625-3.125-.625-4.375,0 0-.418-.414-1.25-1.25-1.461" fill="#444f58"/>
   <path d="m476.457,232.082c2.5-.207 4.586.211 5.418,1.25-1.457-.207-2.707-.414-3.957.211 .207-.625-.418-1.668-1.461-1.461" fill="#444f58"/>
   <path d="m479.793,235c2.082.418 3.332,1.668 3.75,3.332-.836-.832-2.293-1.664-3.543-1.664 .207-.418.207-1.25-.207-1.668" fill="#444f58"/>
   <path d="m481.25,239.582c1.457.836 2.293,2.918 1.668,4.586-.211-1.25-1.25-2.5-2.293-2.5 .832-.625 1.043-1.25.625-2.086" fill="#444f58"/>
   <path d="m478.125,245.207c1.457,1.461 1.668,3.543.625,5.211 0-1.25-.625-2.5-1.457-3.336 .414-.414 1.039-1.039.832-1.875" fill="#444f58"/>
   <path d="m461.25,280.418c2.082-6.668 2.5-15.211 1.457-23.125 3.125-.836 3.75-4.168 5-6.668 1.043-.832 2.5-2.293 3.543-3.125 .418.207 2.082,0 2.5-.418 1.25.418 2.707.418 3.543-.207 .625-.418 1.25-1.043 1.039-1.875-.832-.832-3.75-.832-5.832-.832 1.457-.418 3.125-1.668 3.543-2.086 1.039.211 3.75-.207 4.582-.625 .832-.625 1.25-1.25.832-2.082-2.914-.418-5.832-.832-8.332.418 .832-.211 1.457-1.043 2.082-1.875 1.875,0 3.961-.625 4.793-1.461 .418-.414.418-1.039-.207-1.457-1.043-.418-2.293-.418-3.75,0 .832-.418 1.875-1.25 1.875-1.668 .414-.625-.211-1.457-1.25-1.457-4.793-.418-8.543,3.543-11.875,6.457 .625-.625 1.457-1.457 1.664-2.707 .625-.625 1.875-2.082 2.293-2.918 1.668-.207 3.543-1.457 4.168-2.5 .207-.414-.418-1.039-1.25-1.25-1.25,0-3.961,1.043-5.211,2.5-4.375,4.168-7.289,10-8.332,17.5-1.25,3.961 0,7.293-.207,11.25 0,5.625-1.668,12.711-4.375,18.336-.418,2.082.832,3.957 2.5,4.375 1.875.625 4.582-.211 5.207-2.5z" fill="none" stroke="#434e43" stroke-width=".625"/>
   <path d="m472.5 244.17h-1.25" fill="none" stroke="#434e43" stroke-width=".625"/>
   <path d="m473.12 239.79c-1.25 0.625-2.082 1.457-3.125 2.082" fill="none" stroke="#434e43" stroke-width=".625"/>
   <path d="m467.92 239.79c1.875-2.711 4.789-4.168 8.125-4.793" fill="none" stroke="#434e43" stroke-width=".625"/>
   <path d="m453.75,278.543c-1.25,2.914-1.25,2.914-4.375,5-4.168,2.707-8.957,4.789-14.375,5.832-13.332,2.918-6.668,28.543 15.832,44.793 15.418.832 27.711-2.5 38.75-8.543 1.25-.832 2.711-1.668 3.961-2.5 3.539-2.293 3.539-2.293 4.375-6.668l-7.5-.832c-.836,1.457-2.293,2.293-4.586,3.125-1.25-.625-2.5-1.043-3.539-1.457-8.75-8.336-15.625-18.336-20-29.168-1.668-3.75-1.668-5.207-1.043-7.707s-1.043-4.168-2.918-4.375c-1.664-.211-3.75.625-4.582,2.5" fill="#96b497"/>
   <path d="m434.793,289.375c-2.5.625-4.375,2.082-5.418,4.168 .832,1.039 1.668,2.082 2.5,3.332 8.75,15.418 29.375,15.625 45,21.457-5.207,1.25-10.625,1.461-16.043.418-6.25-3.75-16.875-2.293-19.375,5.207 1.461-2.5 3.543-3.75 6.461-3.539-1.043.625-1.668,2.289-1.461,3.75 2.293-5 10-5.836 14.586-3.336 8.332,1.25 16.875.625 24.789-2.082-1.25-.418-2.5-.832-3.539-1.457-9.586-3.961-19.586-6.875-28.75-11.461-5.625-2.707-9.793-7.289-13.961-11.664 5.836-2.293 11.668-5.625 15.836-10 1.875-2.086 2.5-2.5 4.375,0-.418-2.086-.625-3.961-1.043-6.25-5.625,7.082-12.5,12.082-20.418,14.789-1.039-1.039-2.289-2.082-3.539-3.332" fill="#829c83"/>
   <path d="m495.207,316.043c-.625,2.5-2.289,4.582-5.207,4.789-7.5.211-3.125,5.418-11.043,9.586 3.543-1.461 7.086-2.918 10.418-4.793 1.25-.832 2.707-1.668 3.957-2.707 3.543-2.293 3.543-2.293 4.375-6.668l-2.5-.207" fill="#abcfad"/>
   <path d="m453.543,278.543c-1.25,2.914-1.25,2.914-4.375,4.789-4.168,2.711-8.961,5-14.168,6.043l3.332,3.332 1.25,1.461c4.168,4.375 8.336,8.957 13.75,11.664 9.168,4.586 19.168,7.5 28.75,11.461 1.043.414 2.293.832 3.543,1.25" fill="none" stroke="#434e43" stroke-width=".625"/>
   <path d="m490.21 315.62c-0.832 1.457-2.289 2.293-4.582 2.918-7.918 2.707-16.457 3.332-24.582 2.082-2.918-1.457-7.086-1.668-10.211-0.418" fill="none" stroke="#434e43" stroke-width=".625"/>
   <path d="m450.83 334.17c17.293 1.039 30.625-3.336 42.5-11.043 3.543-2.293 3.543-2.293 4.375-6.668" fill="none" stroke="#434e43" stroke-width=".625"/>
   <path d="m482.08 317.29c-8.75-8.336-15.414-18.543-20-29.375-1.457-3.543-1.664-5-0.832-7.5" fill="none" stroke="#434e43" stroke-width=".625"/>
  </g>
 </g>
</svg>
