<svg xmlns="http://www.w3.org/2000/svg" width="1083.022" height="594.471" viewBox="0 0 1083.022 594.471">
  <g id="Group_1" data-name="Group 1" transform="translate(-57.443 -192.72)">
    <path id="Path_E" data-name="Path E" d="M1547.29,1148.774H1764.2a14.025,14.025,0,0,1,13.985,13.985h0a14.024,14.024,0,0,1-13.985,13.982h-62a14.027,14.027,0,0,0-13.985,13.985h0a14.026,14.026,0,0,0,13.985,13.984h39.933a14.024,14.024,0,0,1,13.983,13.985h0a14.023,14.023,0,0,1-13.983,13.982h-37.291a14.026,14.026,0,0,0-13.985,13.985h0a14.026,14.026,0,0,0,13.985,13.984H1764.2a14.025,14.025,0,0,1,13.985,13.985h0a14.024,14.024,0,0,1-13.985,13.982H1617.521a14.024,14.024,0,0,1-13.984-13.982h0a14.025,14.025,0,0,1,13.984-13.985h9.634a14.026,14.026,0,0,0,13.984-13.984h0a14.026,14.026,0,0,0-13.984-13.985H1526.78A14.023,14.023,0,0,1,1512.8,1218.7h0a14.023,14.023,0,0,1,13.982-13.985h63.4a14.026,14.026,0,0,0,13.984-13.984h0a14.026,14.026,0,0,0-13.984-13.985h-42.89a14.023,14.023,0,0,1-13.983-13.982h0a14.023,14.023,0,0,1,13.983-13.985Z" transform="translate(-782.461 -564.066)" fill="#18133a" fill-rule="evenodd"/>
    <path id="Path_C" data-name="Path C" d="M716.447,583.948h219.31A14.181,14.181,0,0,1,949.9,598.087h0a14.181,14.181,0,0,1-14.139,14.139H873.074a14.181,14.181,0,0,0-14.139,14.139h0A14.181,14.181,0,0,0,873.074,640.5H913.45a14.182,14.182,0,0,1,14.139,14.139h0a14.182,14.182,0,0,1-14.139,14.139h-37.7a14.18,14.18,0,0,0-14.139,14.137h0a14.181,14.181,0,0,0,14.139,14.139h60.012A14.182,14.182,0,0,1,949.9,711.2h0a14.182,14.182,0,0,1-14.139,14.139h-148.3A14.18,14.18,0,0,1,773.317,711.2h0a14.18,14.18,0,0,1,14.139-14.139H797.2a14.181,14.181,0,0,0,14.139-14.139h0a14.18,14.18,0,0,0-14.139-14.14H695.71a14.182,14.182,0,0,1-14.139-14.139h0A14.182,14.182,0,0,1,695.71,640.5h64.1a14.179,14.179,0,0,0,14.139-14.139h0a14.18,14.18,0,0,0-14.139-14.139H716.446a14.181,14.181,0,0,1-14.139-14.139h0A14.182,14.182,0,0,1,716.447,583.948Z" transform="translate(-449.483 -320.228)" fill="#18133a" fill-rule="evenodd"/>
    <path id="Path_C-2" data-name="Path C" d="M716.447,583.948h219.31A14.181,14.181,0,0,1,949.9,598.087h0a14.181,14.181,0,0,1-14.139,14.139H873.074a14.181,14.181,0,0,0-14.139,14.139h0A14.181,14.181,0,0,0,873.074,640.5H913.45a14.182,14.182,0,0,1,14.139,14.139h0a14.182,14.182,0,0,1-14.139,14.139h-37.7a14.18,14.18,0,0,0-14.139,14.137h0a14.181,14.181,0,0,0,14.139,14.139h60.012A14.182,14.182,0,0,1,949.9,711.2h0a14.182,14.182,0,0,1-14.139,14.139h-148.3A14.18,14.18,0,0,1,773.317,711.2h0a14.18,14.18,0,0,1,14.139-14.139H797.2a14.181,14.181,0,0,0,14.139-14.139h0a14.18,14.18,0,0,0-14.139-14.14H695.71a14.182,14.182,0,0,1-14.139-14.139h0A14.182,14.182,0,0,1,695.71,640.5h64.1a14.179,14.179,0,0,0,14.139-14.139h0a14.18,14.18,0,0,0-14.139-14.139H716.446a14.181,14.181,0,0,1-14.139-14.139h0A14.182,14.182,0,0,1,716.447,583.948Z" transform="translate(190.565 -391.228)" fill="#18133a" fill-rule="evenodd"/>
    <path id="Path_B" data-name="Path B" d="M108.677,1171.046H325.586a14.027,14.027,0,0,1,13.985,13.985h0a14.026,14.026,0,0,1-13.985,13.984h-62A14.024,14.024,0,0,0,249.6,1213h0a14.023,14.023,0,0,0,13.983,13.984h39.933a14.026,14.026,0,0,1,13.984,13.985h0a14.026,14.026,0,0,1-13.984,13.984H266.23a14.025,14.025,0,0,0-13.985,13.983h0a14.025,14.025,0,0,0,13.985,13.984h59.356a14.026,14.026,0,0,1,13.984,13.98h0a14.026,14.026,0,0,1-13.985,13.985H178.907a14.026,14.026,0,0,1-13.985-13.985h0a14.026,14.026,0,0,1,13.985-13.984h9.634a14.025,14.025,0,0,0,13.985-13.984h0a14.024,14.024,0,0,0-13.985-13.983H88.167a14.026,14.026,0,0,1-13.985-13.984h0a14.026,14.026,0,0,1,13.985-13.985H151.56A14.025,14.025,0,0,0,165.545,1213h0a14.025,14.025,0,0,0-13.985-13.983H108.677a14.026,14.026,0,0,1-13.985-13.984h0a14.027,14.027,0,0,1,13.985-13.987Z" transform="translate(-16.739 -523.694)" fill="#18133a" fill-rule="evenodd"/>
  </g>
</svg>
