<svg xmlns="http://www.w3.org/2000/svg" width="264.235" height="281.888" viewBox="0 0 264.235 281.888">
  <g id="rocket" transform="translate(-321.597 -66.66)">
    <g id="svg_29" transform="translate(340.169 348.547) rotate(-135)">
      <path id="svg_27" d="M10.4,145.959c-12-43.877,2.489-47.8-1.206-107.865,9.061,28.338,11.59,63.1,15.394,73.38a82.476,82.476,0,0,1,3.567,27.834c-.036,7.925,4.168,17.528,3.019,24.927C25.063,152.57,14.55,160.173,10.4,145.959Z" fill="#e73900" fill-rule="evenodd"/>
      <path id="svg_26" d="M28.542,158.771c.069-8.4-4.2-12.048-5.915-18.611-2.843-5.013-3.744-12.815-3.806-20.5C18.59,107.373,23.187,34.1,29.884,14.425c-2.567,30.217,3.805,70.468,7.742,83.784a104.724,104.724,0,0,1,2.706,33.98c-.471,9.352-3.723,14.971-5.482,23.358C33.091,160.6,30.7,161.077,28.542,158.771Z" fill="#e73900" fill-rule="evenodd"/>
      <path id="svg_25" d="M30.973,162.881c1.021-7.3-1-18.871-1.636-25.642-1.726-6.1-1.559-13.458-.728-20.209,1.224-10.877,1.426-62.2,21.175-86.306C34.468,66.53,44.638,95.63,46.3,109.642a102.852,102.852,0,0,1-1.711,31.324C41.57,154.187,33.518,161.474,30.973,162.881Z" fill="#e73900" fill-rule="evenodd"/>
      <path id="svg_24" d="M27.719,158.6c.052-6.86-3.175-9.836-4.474-15.193-2.15-4.092-2.832-10.462-2.879-16.735-.175-10.032,4.115-63.071,7.556-85.913-2.348,51.778,3.691,57.529,6.669,68.4A92.064,92.064,0,0,1,36.637,136.9c-.357,7.634-1.894,14.593-3.224,21.441C32.082,162.466,29.349,160.485,27.719,158.6Z" fill="#e78c00" fill-rule="evenodd"/>
      <path id="svg_23" d="M15.342,148.772c-12.322-30.141,1.1-32.24-2.313-73.634,4.058,19.511,7.424,34.168,8.9,48.022,2.187,4.892,9.743,34.756,9.29,40.17C26.458,156.87,18.89,157.451,15.342,148.772Z" fill="#e78c00" fill-rule="evenodd"/>
      <path id="svg_22" d="M17.8,146.957c-7.371-16.671-1.866-26.459-1.932-47.281,2.038,18.223,8.482,22.713,8.4,33.66,1.065,3.275,6.64,26.627,6.173,29.627C27.965,158.234,20.6,153.273,17.8,146.957Z" fill="#e7e100" fill-rule="evenodd"/>
      <path id="svg_21" d="M29.65,144.71c-1.3-4.574-1.17-10.1-.546-15.163.918-8.161,4.952-53.52,10.716-63.386-4.162,18.647,1.311,47.33,2.555,57.843.727,7.99.93,17.44-1.284,23.5-3.344,9.158-7.565,14.491-9.931,15.77C29.657,165.791,30.128,149.79,29.65,144.71Z" fill="#e78c00" fill-rule="evenodd"/>
      <path id="svg_20" d="M27.568,159.1c.1-4.2-1.841-6.211-2.58-9.569-1.274-2.634-1.624-6.574-1.587-10.417,0-6.153-.09-44.5,3.18-54.039-1.447,14.988,4,37.33,5.712,44.163a57.305,57.305,0,0,1,.962,17.106,85.71,85.71,0,0,1-2.2,12.935C30.2,161.73,28.547,160.354,27.568,159.1Z" fill="#e7e100" fill-rule="evenodd"/>
      <path id="svg_19" d="M29.124,159.64c.837-2.922-.2-6.38-.124-9.565a23.628,23.628,0,0,1,.746-9.154c1.116-4.442,3.077-37.453,7.169-40.963-3.766,9.325,2.774,34.256,2.767,40.949-.135,5-2.687,11.756-4.136,15.391A36.73,36.73,0,0,1,31,164.335,12.651,12.651,0,0,1,29.124,159.64Z" fill="#e7e100" fill-rule="evenodd"/>
      <path id="svg_18" d="M27.712,156.3c-2.6-9.769-1.637-20.669-.53-32.556.5,8.066,2.605,17.855,3.793,21.064a25.75,25.75,0,0,1,1.114,8.69,56.219,56.219,0,0,1-.9,7.783C29.283,157.639,29.008,160.737,27.712,156.3Z" fill="#ffff9e" fill-rule="evenodd"/>
      <path id="svg_17" d="M30.639,151.454c2.017-10.527.02-18.815,4.642-27.074-1.38,7.656,1.777,19.746,1.433,23.938-.578,7.05-4.567,12.3-5.575,12.84C31.38,155.361,29.784,156.461,30.639,151.454Z" fill="#ffff9e" fill-rule="evenodd"/>
      <path id="svg_16" fill="#ffff9e" fill-rule="evenodd"/>
    </g>
    <g id="svg_1" transform="translate(265.34 -293.148) rotate(45.519)">
      <path id="path3217" d="M481.668,67.248c-8.024,6.942-69.7,65.129-22.982,176.556H505.4c46.717-111.427-14.957-169.6-22.982-176.547Z" fill="#ececec" stroke="#000" stroke-width="3" fill-rule="evenodd"/>
      <path id="path3219" d="M483.6,139.39c-9.719,0-17.623,8.6-17.623,19.167s7.9,19.158,17.623,19.158,17.631-8.593,17.631-19.158S493.321,139.39,483.6,139.39Zm0,2.266c8.591,0,15.546,7.562,15.546,16.9s-6.956,16.892-15.546,16.892-15.538-7.553-15.538-16.892S475.012,141.656,483.6,141.656Z" fill="#ccc"/>
      <path id="path2419" d="M450.565,113l11.32-22.608,15.795-19.46,4.475-3.72L499,86.381l13.162,23.18,1.053,4.865L450.3,114.14" fill="red" stroke="#000" stroke-width="3" fill-rule="evenodd"/>
      <path id="path2408" d="M444.247,199.134s-27.9-.378-11.056,76.694c0,0,1.579-64.354,16.321-56.42" fill="red" stroke="#000" stroke-width="3" fill-rule="evenodd"/>
      <path id="path2410" d="M519.919,199.134s27.9-.378,11.056,76.694c0,0-1.579-64.354-16.321-56.42" fill="red" stroke="#000" stroke-width="3" fill-rule="evenodd"/>
      <path id="path2423" d="M451.881,228.037l6.844,15.74,46.858-.286,5.528-15.453Z" fill="#b3b3b3" stroke="#000" stroke-width="3" fill-rule="evenodd"/>
      <path id="path3209" d="M526.379,206.86l-5.265,14.309-3.159-2.862-3.685,1.717,5-21.463,8.95,4.865s15.531,11.733,3.422,70.113C538.752,213.156,526.116,206.86,526.379,206.86Z" fill="#d20000" fill-rule="evenodd"/>
      <path id="path3213" d="M432.4,274.97s-2.622-62.43,15.268-62.672c1.974-.027,1.843,6.868,1.843,6.868l-7.108,1.717-5.528,18.887Z" fill="#d20000" fill-rule="evenodd"/>
      <path id="path3232" d="M493.943,228.039c1.056,3.459,1.68,8.286,1.376,15.165a5.471,5.471,0,0,1,.708.345l9.553-.062,4.455-12.447c-.18-1.064-.387-2.013-.586-3Z" fill="#999" fill-rule="evenodd"/>
      <path id="path3227" d="M487.16,197.826a9.324,9.324,0,0,0-2.9.159l-1.319,22.035s6.342-1.361,9.333,8.021h15.538C502.766,202.457,492.263,198.237,487.16,197.826Z" fill="#ccc" fill-rule="evenodd"/>
      <path id="path3241" d="M452.622,229.319l5.212,14.165,7.3.567L463.046,227.9Z" fill="#ccc" fill-rule="evenodd"/>
      <path id="path2394" d="M450.565,113.568h61.863" fill="none" stroke="#000" stroke-width="3" fill-rule="evenodd"/>
      <path id="path2400" d="M498.627,156.855c0,9.957-7.425,18.029-16.584,18.029s-16.584-8.072-16.584-18.029" fill="#b3b3b3" stroke="#000" stroke-linecap="round" stroke-width="3"/>
      <path id="path2402" d="M492.836,156.855c0,6.48-4.832,11.733-10.793,11.733s-10.793-5.253-10.793-11.733" fill="#80e5ff" stroke="#000" stroke-linecap="round" stroke-width="3"/>
      <path id="path2417" d="M452.671,228.323h58.44" fill="none" stroke="#000" stroke-width="3" fill-rule="evenodd"/>
      <path id="rect2414" d="M479.673,198.561h4.738v77.267h-4.738Z" fill="red" stroke="#000" stroke-linecap="round" stroke-width="3"/>
      <path id="path2425" d="M508.479,224.6s21.06-52.656,4.212-103.309c.79,89.858-21.849,103.309-21.849,103.309Z" fill="#ccc" fill-rule="evenodd"/>
      <rect id="rect2429" width="8.942" height="23.823" transform="translate(486.6 144.783) rotate(45)" fill="#fff"/>
      <path id="path2431" d="M492.836,156.855c0,6.48-4.832,11.733-10.793,11.733s-10.793-5.253-10.793-11.733" fill="none" stroke="#000" stroke-linecap="round" stroke-width="3"/>
      <path id="path2437" d="M506.109,109.275S497.949,86.1,482.417,73.79c14.215,29.762,6.844,35.486,6.844,35.486Z" fill="#d20000" fill-rule="evenodd"/>
      <path id="path3211" d="M519.919,199.134s27.9-.378,11.056,76.694c0,0-1.579-64.354-16.321-56.42" fill="none" stroke="#000" stroke-width="3" fill-rule="evenodd"/>
      <path id="path3215" d="M444.247,199.134s-27.9-.378-11.056,76.694c0,0,1.579-64.354,16.321-56.42" fill="none" stroke="#000" stroke-width="3" fill-rule="evenodd"/>
      <path id="path3237" d="M454.25,108.417s13.952-29.476,25.535-37.2S454.513,108.989,454.25,108.417Z" fill="#fff" fill-rule="evenodd"/>
      <path id="path3239" d="M446.032,186.743c-.824-.5-5.922-41.35,6.7-66.777,7.783-6.81,18.373-3.229,17.87-.4C466.244,144.024,450.936,189.7,446.032,186.743Z" fill="#fff" fill-rule="evenodd"/>
      <path id="path2382" d="M481.668,67.248c-8.024,6.942-69.7,65.129-22.982,176.556H505.4c46.717-111.427-14.957-169.6-22.982-176.547Z" fill="none" stroke="#000" stroke-width="3" fill-rule="evenodd"/>
    </g>
  </g>
</svg>
