<?xml version="1.0" encoding="UTF-8"?>
<svg width="512" height="512" version="1.1" viewBox="0 0 512.00001 512.00001" xmlns="http://www.w3.org/2000/svg">
 <defs>
  <filter id="a" x="-.015305" y="-.021847" width="1.0306" height="1.0437" color-interpolation-filters="sRGB">
   <feGaussianBlur stdDeviation="3.108486"/>
  </filter>
 </defs>
 <path d="m258 111.51a92.495 101.81 0 0 0 -90.627 81.938c-30.21 4.2193-57.433 10.49-80.254 18.352-21.989 7.5751-39.911 16.601-52.578 26.918s-20.262 22.221-20.262 35.127 7.5945 24.808 20.262 35.125c12.667 10.317 30.589 19.343 52.578 26.918 2.9416 1.0134 5.9622 1.9974 9.0469 2.957v1.4277h0.6582c0.41988 1.3381 1.044 2.95 2.3262 4.8906 2.8249 4.2756 8.2498 9.6212 18.539 14.812 7.2828 3.6745 17.026 7.2935 30.084 10.441a158.78 82.644 0 0 0 100.25 23.023v24.738c-1.3696 1.113-2.25 2.8088-2.25 4.7031 0 2.6319 1.6992 4.8757 4.0527 5.709l-0.22461 0.87109c-1.7305 6.7222 2.4579 12.853 9.3496 13.682l35.814 4.3066c4.7993 0.57715 9.6464-1.5715 12.734-5.1973-0.0463 1.0993-0.042 2.143 0.0215 3.1133 0.11826 1.8063 0.40805 3.3727 1.0371 4.7148 0.62906 1.3422 1.7755 2.6601 3.6602 2.8867 1.8847 0.22665 3.6193-0.74458 4.8809-1.8594 1.2616-1.1148 2.3149-2.5192 3.3281-4.1894 1.7732-2.9229 3.3693-6.6799 4.5996-10.91l0.42383 0.0508c-0.64808 3.0452-0.92252 5.8462-0.77344 8.123 0.0895 1.3674 0.30893 2.5542 0.78516 3.5703s1.3447 2.012 2.7715 2.1836c1.4268 0.17158 2.7402-0.56231 3.6953-1.4062 0.95505-0.84394 1.7525-1.9074 2.5195-3.1719 1.2773-2.1054 2.4184-4.8028 3.3301-7.8164l0.46289 0.0566c-0.43323 2.1736-0.60561 4.1677-0.49804 5.8106 0.0688 1.0505 0.23962 1.9616 0.60547 2.7422 0.36584 0.78055 1.0309 1.5459 2.127 1.6777 1.0961 0.13181 2.1042-0.43175 2.8379-1.0801 0.73368-0.64833 1.3482-1.4661 1.9375-2.4375 0.92158-1.5191 1.7548-3.4339 2.4336-5.5781l0.84571 0.10156c-0.2786 1.5343-0.38563 2.9425-0.3086 4.1191 0.0536 0.81888 0.18357 1.5302 0.46875 2.1387 0.28518 0.60846 0.80379 1.2058 1.6582 1.3086 0.8544 0.10275 1.6429-0.33837 2.2148-0.84375 0.57192-0.50539 1.0485-1.1412 1.5078-1.8984 0.65993-1.0878 1.2613-2.4384 1.7656-3.9453l1.8574 0.22461a3.9335 4.8341 30.873 0 0 2.9668 3.1836 3.9335 4.8341 30.873 0 0 5.2012 -4.1055 3.9335 4.8341 30.873 0 0 -2.8379 -5.0723 3.9335 4.8341 30.873 0 0 -4.3848 2.3008l-1.8516-0.22266c0.2785-1.5342 0.38755-2.943 0.31055-4.1191-0.0536-0.81888-0.18553-1.5283-0.47071-2.1367-0.28519-0.60846-0.80575-1.2058-1.6602-1.3086-0.85442-0.10275-1.639 0.33641-2.2109 0.84179-0.57192 0.50539-1.0504 1.1432-1.5098 1.9004-0.65967 1.0874-1.2612 2.4366-1.7656 3.9434l-0.84571-0.10156c0.43261-2.1736 0.60558-4.1681 0.49805-5.8105-0.0688-1.0505-0.23767-1.9616-0.60351-2.7422-0.36585-0.78056-1.0328-1.5459-2.1289-1.6777-1.0961-0.13181-2.1042 0.43175-2.8379 1.0801-0.73369 0.64833-1.3502 1.4642-1.9394 2.4356-0.92159 1.5191-1.7532 3.4353-2.4316 5.5801l-0.46289-0.0566c0.64771-3.0443 0.92051-5.8448 0.77148-8.1211-0.0895-1.3674-0.30698-2.5562-0.7832-3.5723-0.47623-1.0161-1.3447-2.012-2.7715-2.1836-1.4268-0.17159-2.7383 0.56231-3.6934 1.4062s-1.7564 1.9094-2.5234 3.1738c-1.277 2.105-2.4185 4.8016-3.3301 7.8144l-0.42188-0.0508c0.95602-4.2629 1.3319-8.1676 1.125-11.328-0.11827-1.8063-0.40805-3.3727-1.0371-4.7148s-1.7755-2.6601-3.6602-2.8867c-1.8847-0.22665-3.6174 0.74458-4.8789 1.8594s-2.3168 2.5192-3.3301 4.1894c-0.54488 0.89819-1.0721 1.8803-1.5781 2.9258-1.0914-4.1291-4.5713-7.2802-9.3711-7.8574l-35.814-4.3066c-4.331-0.52084-8.7035 1.1772-11.785 4.1777v-20.736a158.78 82.644 0 0 0 2.3477 0.0606 158.78 82.644 0 0 0 110.68 -23.393c12.829-3.1222 22.427-6.7006 29.625-10.332 10.289-5.1909 15.712-10.533 18.537-14.809 1.4124-2.1376 2.1693-4.0004 2.5625-5.3887 0.0866-0.30579 0.14994-0.59338 0.20508-0.86719 3.161-0.98102 6.2564-1.9861 9.2676-3.0234 21.989-7.5751 39.913-16.601 52.58-26.918s20.26-22.219 20.26-35.125c-1e-5 -12.906-7.5925-24.81-20.26-35.127-12.667-10.317-30.591-19.343-52.58-26.918-22.802-7.855-49.998-14.121-80.178-18.34a92.495 101.81 0 0 0 -90.701 -81.949zm63.043 307.19c0.0311 0.0549 0.0299 0.0367 0.0703 0.12305 0.2647 0.56477 0.53484 1.6687 0.62891 3.1055 0.16228 2.4785-0.14537 5.9397-0.98242 9.7598l-5.9375-0.71484c1.121-3.7858 2.5628-7.1087 3.9531-9.4004 0.80597-1.3286 1.6098-2.3043 2.1406-2.7734 0.081-0.0716 0.0704-0.0553 0.12695-0.0996zm13.873 5.2949c0.0234 0.0414 0.0223 0.027 0.0527 0.0918 0.20039 0.42756 0.40339 1.2658 0.47461 2.3535 0.11622 1.775-0.10172 4.2272-0.66016 6.9336l-4.4277-0.53321c0.82669-2.674 1.8462-5.0307 2.8418-6.6719 0.61015-1.0058 1.2192-1.7445 1.6211-2.0996 0.0617-0.0545 0.0547-0.0406 0.0977-0.0742zm10.695 3.9043c0.0182 0.032 0.0173 0.0218 0.041 0.0723 0.15394 0.32846 0.30856 0.97104 0.36328 1.8066 0.0832 1.2707-0.0456 2.9864-0.41015 4.8965l-3.373-0.4043c0.61078-1.8807 1.3457-3.5241 2.0586-4.6992 0.46873-0.77265 0.93542-1.3405 1.2441-1.6133 0.0482-0.0426 0.0428-0.0325 0.0762-0.0586zm8.7422 2.9648c0.0144 0.0252 0.0145 0.0166 0.0332 0.0566 0.12 0.25604 0.24056 0.75489 0.2832 1.4062 0.0587 0.89654-0.0282 2.0881-0.2539 3.4082l-2.5547-0.30664c0.4471-1.2935 0.9619-2.4327 1.4648-3.2617 0.36539-0.6023 0.72809-1.0452 0.96875-1.2578 0.0371-0.0328 0.0328-0.0247 0.0586-0.0449zm-40.48 3.8008 5.9375 0.71485c-1.1209 3.7854-2.5609 7.1086-3.9512 9.4004-0.80598 1.3286-1.6117 2.3024-2.1426 2.7715-0.0812 0.0718-0.0703 0.0552-0.12696 0.0996-0.0311-0.0549-0.0299-0.0367-0.0703-0.12305-0.26471-0.56477-0.53287-1.6687-0.62695-3.1055-0.16227-2.4785 0.14351-5.9382 0.98047-9.7578zm15.531 1.8672 4.4277 0.5332c-0.82678 2.6747-1.8459 5.0323-2.8418 6.6738-0.61015 1.0058-1.2192 1.7425-1.6211 2.0977-0.0617 0.0545-0.0547 0.0406-0.0977 0.0742-0.0233-0.0412-0.0226-0.0275-0.0527-0.0918-0.2004-0.42756-0.4034-1.2638-0.47461-2.3516-0.11625-1.7754 0.10143-4.2284 0.66016-6.9356zm11.877 1.4297 3.373 0.40429c-0.61142 1.8814-1.3455 3.5257-2.0586 4.7012-0.46873 0.77265-0.93541 1.3385-1.2441 1.6113-0.0482 0.0426-0.0428 0.0326-0.0762 0.0586-0.0183-0.0321-0.0171-0.0215-0.041-0.0723-0.15394-0.32845-0.31054-0.96909-0.36524-1.8047-0.0832-1.2711 0.0468-2.9878 0.41211-4.8984zm9.6309 1.1582 2.5547 0.30664c-0.44692 1.2928-0.96196 2.4308-1.4648 3.2598-0.36538 0.60229-0.72809 1.0452-0.96875 1.2578-0.0371 0.0328-0.0327 0.0247-0.0586 0.0449-0.0142-0.0251-0.0145-0.0169-0.0332-0.0566-0.12-0.25604-0.24055-0.75489-0.28321-1.4062-0.0587-0.89654 0.0283-2.0867 0.25391-3.4062z" fill-opacity=".39216" filter="url(#a)"/>
 <path d="m256 109.51a92.495 101.81 0 0 0 -90.627 81.938c-30.21 4.2193-57.433 10.49-80.254 18.352-21.989 7.5751-39.911 16.601-52.578 26.918s-20.262 22.221-20.262 35.127 7.5945 24.808 20.262 35.125c12.667 10.317 30.589 19.343 52.578 26.918 2.9416 1.0134 5.9622 1.9974 9.0469 2.957v1.4277h0.6582c0.41988 1.3381 1.044 2.95 2.3262 4.8906 2.8249 4.2756 8.2498 9.6212 18.539 14.812 7.2828 3.6745 17.026 7.2935 30.084 10.441a158.78 82.644 0 0 0 100.25 23.023v24.738c-1.3696 1.113-2.25 2.8088-2.25 4.7031 0 2.6319 1.6992 4.8757 4.0527 5.709l-0.22461 0.87109c-1.7305 6.7222 2.4579 12.853 9.3496 13.682l35.814 4.3066c4.7993 0.57715 9.6464-1.5715 12.734-5.1973-0.0463 1.0993-0.042 2.143 0.0215 3.1133 0.11826 1.8063 0.40805 3.3727 1.0371 4.7148 0.62906 1.3422 1.7755 2.6601 3.6602 2.8867 1.8847 0.22665 3.6193-0.74458 4.8809-1.8594 1.2616-1.1148 2.3149-2.5192 3.3281-4.1894 1.7732-2.9229 3.3693-6.6799 4.5996-10.91l0.42383 0.0508c-0.64808 3.0452-0.92252 5.8462-0.77344 8.123 0.0895 1.3674 0.30893 2.5542 0.78516 3.5703s1.3447 2.012 2.7715 2.1836c1.4268 0.17158 2.7402-0.56231 3.6953-1.4062 0.95505-0.84394 1.7525-1.9074 2.5195-3.1719 1.2773-2.1054 2.4184-4.8028 3.3301-7.8164l0.46289 0.0566c-0.43323 2.1736-0.60561 4.1677-0.49804 5.8106 0.0688 1.0505 0.23962 1.9616 0.60547 2.7422 0.36584 0.78055 1.0309 1.5459 2.127 1.6777 1.0961 0.13181 2.1042-0.43175 2.8379-1.0801 0.73368-0.64833 1.3482-1.4661 1.9375-2.4375 0.92158-1.5191 1.7548-3.4339 2.4336-5.5781l0.84571 0.10156c-0.2786 1.5343-0.38563 2.9425-0.3086 4.1191 0.0536 0.81888 0.18357 1.5302 0.46875 2.1387 0.28518 0.60846 0.80379 1.2058 1.6582 1.3086 0.8544 0.10275 1.6429-0.33837 2.2148-0.84375 0.57192-0.50539 1.0485-1.1412 1.5078-1.8984 0.65993-1.0878 1.2613-2.4384 1.7656-3.9453l1.8574 0.22461a3.9335 4.8341 30.873 0 0 2.9668 3.1836 3.9335 4.8341 30.873 0 0 5.2012 -4.1055 3.9335 4.8341 30.873 0 0 -2.8379 -5.0723 3.9335 4.8341 30.873 0 0 -4.3848 2.3008l-1.8516-0.22266c0.2785-1.5342 0.38755-2.943 0.31055-4.1191-0.0536-0.81888-0.18553-1.5283-0.47071-2.1367-0.28519-0.60846-0.80575-1.2058-1.6602-1.3086-0.85442-0.10275-1.639 0.33641-2.2109 0.84179-0.57192 0.50539-1.0504 1.1432-1.5098 1.9004-0.65967 1.0874-1.2612 2.4366-1.7656 3.9434l-0.84571-0.10156c0.43261-2.1736 0.60558-4.1681 0.49805-5.8105-0.0688-1.0505-0.23767-1.9616-0.60351-2.7422-0.36585-0.78056-1.0328-1.5459-2.1289-1.6777-1.0961-0.13181-2.1042 0.43175-2.8379 1.0801-0.73369 0.64833-1.3502 1.4642-1.9394 2.4356-0.92159 1.5191-1.7532 3.4353-2.4316 5.5801l-0.46289-0.0566c0.64771-3.0443 0.92051-5.8448 0.77148-8.1211-0.0895-1.3674-0.30698-2.5562-0.7832-3.5723-0.47623-1.0161-1.3447-2.012-2.7715-2.1836-1.4268-0.17159-2.7383 0.56231-3.6934 1.4062s-1.7564 1.9094-2.5234 3.1738c-1.277 2.105-2.4185 4.8016-3.3301 7.8144l-0.42188-0.0508c0.95602-4.2629 1.3319-8.1676 1.125-11.328-0.11827-1.8063-0.40805-3.3727-1.0371-4.7148s-1.7755-2.6601-3.6602-2.8867c-1.8847-0.22665-3.6174 0.74458-4.8789 1.8594s-2.3168 2.5192-3.3301 4.1894c-0.54488 0.89819-1.0721 1.8803-1.5781 2.9258-1.0914-4.1291-4.5713-7.2802-9.3711-7.8574l-35.814-4.3066c-4.331-0.52084-8.7035 1.1772-11.785 4.1777v-20.736a158.78 82.644 0 0 0 2.3477 0.0606 158.78 82.644 0 0 0 110.68 -23.393c12.829-3.1222 22.427-6.7006 29.625-10.332 10.289-5.1909 15.712-10.533 18.537-14.809 1.4124-2.1376 2.1693-4.0004 2.5625-5.3887 0.0866-0.30579 0.14994-0.59338 0.20508-0.86719 3.161-0.98102 6.2564-1.9861 9.2676-3.0234 21.989-7.5751 39.913-16.601 52.58-26.918s20.26-22.219 20.26-35.125c-1e-5 -12.906-7.5925-24.81-20.26-35.127-12.667-10.317-30.591-19.343-52.58-26.918-22.802-7.855-49.998-14.121-80.178-18.34a92.495 101.81 0 0 0 -90.701 -81.949zm63.043 307.19c0.0311 0.0549 0.0299 0.0367 0.0703 0.12305 0.2647 0.56477 0.53484 1.6687 0.62891 3.1055 0.16228 2.4785-0.14537 5.9397-0.98242 9.7598l-5.9375-0.71484c1.121-3.7858 2.5628-7.1087 3.9531-9.4004 0.80597-1.3286 1.6098-2.3043 2.1406-2.7734 0.081-0.0716 0.0704-0.0553 0.12695-0.0996zm13.873 5.2949c0.0234 0.0414 0.0223 0.027 0.0527 0.0918 0.20039 0.42756 0.40339 1.2658 0.47461 2.3535 0.11622 1.775-0.10172 4.2272-0.66016 6.9336l-4.4277-0.53321c0.82669-2.674 1.8462-5.0307 2.8418-6.6719 0.61015-1.0058 1.2192-1.7445 1.6211-2.0996 0.0617-0.0545 0.0547-0.0406 0.0977-0.0742zm10.695 3.9043c0.0182 0.032 0.0173 0.0218 0.041 0.0723 0.15394 0.32846 0.30856 0.97104 0.36328 1.8066 0.0832 1.2707-0.0456 2.9864-0.41015 4.8965l-3.373-0.4043c0.61078-1.8807 1.3457-3.5241 2.0586-4.6992 0.46873-0.77265 0.93542-1.3405 1.2441-1.6133 0.0482-0.0426 0.0428-0.0325 0.0762-0.0586zm8.7422 2.9648c0.0144 0.0252 0.0145 0.0166 0.0332 0.0566 0.12 0.25604 0.24056 0.75489 0.2832 1.4062 0.0587 0.89654-0.0282 2.0881-0.2539 3.4082l-2.5547-0.30664c0.4471-1.2935 0.9619-2.4327 1.4648-3.2617 0.36539-0.6023 0.72809-1.0452 0.96875-1.2578 0.0371-0.0328 0.0328-0.0247 0.0586-0.0449zm-40.48 3.8008 5.9375 0.71485c-1.1209 3.7854-2.5609 7.1086-3.9512 9.4004-0.80598 1.3286-1.6117 2.3024-2.1426 2.7715-0.0812 0.0718-0.0703 0.0552-0.12696 0.0996-0.0311-0.0549-0.0299-0.0367-0.0703-0.12305-0.26471-0.56477-0.53287-1.6687-0.62695-3.1055-0.16227-2.4785 0.14351-5.9382 0.98047-9.7578zm15.531 1.8672 4.4277 0.5332c-0.82678 2.6747-1.8459 5.0323-2.8418 6.6738-0.61015 1.0058-1.2192 1.7425-1.6211 2.0977-0.0617 0.0545-0.0547 0.0406-0.0977 0.0742-0.0233-0.0412-0.0226-0.0275-0.0527-0.0918-0.2004-0.42756-0.4034-1.2638-0.47461-2.3516-0.11625-1.7754 0.10143-4.2284 0.66016-6.9356zm11.877 1.4297 3.373 0.40429c-0.61142 1.8814-1.3455 3.5257-2.0586 4.7012-0.46873 0.77265-0.93541 1.3385-1.2441 1.6113-0.0482 0.0426-0.0428 0.0326-0.0762 0.0586-0.0183-0.0321-0.0171-0.0215-0.041-0.0723-0.15394-0.32845-0.31054-0.96909-0.36524-1.8047-0.0832-1.2711 0.0468-2.9878 0.41211-4.8984zm9.6309 1.1582 2.5547 0.30664c-0.44692 1.2928-0.96196 2.4308-1.4648 3.2598-0.36538 0.60229-0.72809 1.0452-0.96875 1.2578-0.0371 0.0328-0.0327 0.0247-0.0586 0.0449-0.0142-0.0251-0.0145-0.0169-0.0332-0.0566-0.12-0.25604-0.24055-0.75489-0.28321-1.4062-0.0587-0.89654 0.0283-2.0867 0.25391-3.4062z" fill="none" stroke="#fff" stroke-linecap="round" stroke-linejoin="round" stroke-width="5"/>
 <g transform="matrix(1.5252 0 0 1.5252 -134.46 -118.72)">
  <ellipse cx="256" cy="280.4" rx="104.1" ry="54.184" fill="#14242f"/>
  <path d="m151.9 297.55 208.21 2e-3s-8.9e-4 26.261-104.1 26.261c-104.1 0-104.1-26.263-104.1-26.263z" fill="#405c72" fill-rule="evenodd"/>
  <path d="m151.9 295.55 2 2h-4v2h0.43164c0.27529 0.87731 0.68474 1.9347 1.5254 3.207 1.8521 2.8032 5.4083 6.3073 12.154 9.7109 13.492 6.8073 39.773 13.346 91.992 13.346s78.499-6.539 91.99-13.346c6.7459-3.4033 10.302-6.906 12.154-9.709 0.92602-1.4015 1.4219-2.623 1.6797-3.5332 0.25777-0.91023 0.2793-1.6719 0.2793-1.6719v-2.002l-210.21-2e-3zm2.8106 4 202.58 2e-3c-0.17413 0.35515-0.19217 0.56266-0.48243 1.002-1.4013 2.1208-4.352 5.1819-10.619 8.3438-12.534 6.3236-38.306 12.916-90.189 12.916s-77.655-6.5938-90.189-12.918c-6.2673-3.1621-9.2177-6.2226-10.619-8.3438-0.29041-0.43954-0.3102-0.64664-0.48438-1.002z" color="#000000" color-rendering="auto" fill="#14242f" fill-rule="evenodd" image-rendering="auto" shape-rendering="auto" solid-color="#000000" style="block-progression:tb;isolation:auto;mix-blend-mode:normal;text-decoration-color:#000000;text-decoration-line:none;text-decoration-style:solid;text-indent:0;text-transform:none;white-space:normal"/>
  <ellipse cx="256" cy="256" rx="157.29" ry="54.184" fill="#284760"/>
  <path d="m256 199.32c-43.667 0-83.201 6.0729-112.04 16.006-14.417 4.9665-26.168 10.884-34.473 17.648-8.3051 6.7642-13.283 14.567-13.283 23.029-1e-6 8.4618 4.9781 16.265 13.283 23.029 8.3051 6.7642 20.056 12.682 34.473 17.648 28.834 9.933 68.368 16.006 112.04 16.006s83.201-6.0729 112.04-16.006c14.417-4.9665 26.168-10.884 34.473-17.648 8.3051-6.7642 13.283-14.567 13.283-23.029-1e-5 -8.4618-4.9781-16.265-13.283-23.029-8.3051-6.7642-20.056-12.682-34.473-17.648-28.834-9.933-68.368-16.006-112.04-16.006zm0 5c43.202 0 82.313 6.0545 110.41 15.732 14.047 4.839 25.332 10.598 32.945 16.799 7.6135 6.2009 11.439 12.652 11.439 19.152 0 6.5008-3.8259 12.951-11.439 19.152-7.6135 6.2009-18.898 11.96-32.945 16.799-28.094 9.6779-67.205 15.732-110.41 15.732s-82.313-6.0545-110.41-15.732c-14.047-4.839-25.332-10.598-32.945-16.799-7.6135-6.2009-11.439-12.652-11.439-19.152 1e-5 -6.5008 3.8259-12.951 11.439-19.152 7.6135-6.2009 18.898-11.96 32.945-16.799 28.094-9.6779 67.205-15.732 110.41-15.732z" color="#000000" color-rendering="auto" fill="#14242f" image-rendering="auto" shape-rendering="auto" solid-color="#000000" style="block-progression:tb;isolation:auto;mix-blend-mode:normal;text-decoration-color:#000000;text-decoration-line:none;text-decoration-style:solid;text-indent:0;text-transform:none;white-space:normal"/>
  <circle cx="321.4" cy="215.44" r="4.3129" fill="#405c72" stroke="#14242f" stroke-linecap="round" stroke-linejoin="round"/>
  <circle transform="matrix(.36957 .9292 -.9292 .36957 0 0)" cx="318.12" cy="-218.84" r="2.4093" fill="#798d9c"/>
  <circle transform="matrix(.36957 .9292 -.9292 .36957 0 0)" cx="317.69" cy="-219.33" r="1.4944" fill="#fff"/>
  <path d="m256 149.57a60.643 66.749 0 0 0 -60.644 66.75 60.643 66.749 0 0 0 4.5694 25.289c16.594 3.0564 35.697 5.8224 56.074 5.8224 20.384 0 39.493-2.7688 56.091-5.8264a60.643 66.749 0 0 0 4.5527 -25.285 60.643 66.749 0 0 0 -60.644 -66.75z" fill="#14242f"/>
  <path d="m368.54 243.24 7.1956 5.8728 2.9206 5.4954s0.73193 6.2214-3.0497 9.2711c-3.7816 3.0497-12.809 12.443-51.357 19.274-38.548 6.8313-83.928 4.3916-101.01 3.6596-17.078-0.73192-41.232-5.3675-41.232-5.3675s207.15 7.7606 186.53-38.206z" fill="#405c72" fill-rule="evenodd"/>
  <ellipse cx="256" cy="256" rx="122.57" ry="32.211" fill="none" stroke="#14242f" stroke-linecap="round" stroke-linejoin="round" stroke-width="3.4031"/>
  <path d="m256 152.95a56.586 64.867 0 0 0 -56.586 64.867 56.586 64.867 0 0 0 4.2637 24.576c15.483 2.9702 33.309 5.6582 52.322 5.6582 19.02 0 36.851-2.6907 52.338-5.6621a56.586 64.867 0 0 0 4.248 -24.572 56.586 64.867 0 0 0 -56.586 -64.867z" fill="#284760"/>
  <path d="m256 157.78a52.372 60.036 0 0 0 -52.371 60.037 52.372 60.036 0 0 0 5.0254 25.508c14.281 2.5774 30.346 4.7266 47.346 4.7266 16.997 0 33.061-2.1477 47.34-4.7246a52.372 60.036 0 0 0 5.0312 -25.51 52.372 60.036 0 0 0 -52.371 -60.037z" fill="#405c72"/>
  <g transform="translate(-10.064 .26132)">
   <path d="m282.04 208.86c0 9.23-8.8478 16.712-19.762 16.712-10.914 0-19.762-7.4824-19.762-16.712s9.8237-8.6612 20.738-8.6612c10.914 1e-5 18.786-0.56883 18.786 8.6612z" fill="#284760"/>
   <ellipse cx="252.45" cy="209.9" rx="2.0128" ry="3.8426" fill="#405c72"/>
   <ellipse cx="273.13" cy="209.96" rx="2.0128" ry="3.8426" fill="#405c72"/>
   <path d="m273.25 201.91s4.8795-13.541 7.6853-18.176" fill="none" stroke="#284760" stroke-linecap="round" stroke-width="4"/>
   <path d="m254.96 201.54s-4.8795-12.687-7.9292-16.468" fill="none" stroke="#284760" stroke-linecap="round" stroke-width="4"/>
   <circle cx="280.27" cy="183.79" r="5.0625" fill="#284760"/>
   <circle cx="246.54" cy="183.97" r="5.0625" fill="#284760"/>
   <path d="m258.25 220.45c4.0256 0 4.5136 0.24398 7.6853-0.24397 3.1717-0.48796 1.5858-2.0738-1.0979-1.9518-2.6837 0.12198-10.125 1.3419-6.5874 2.1958z" fill="#405c72" fill-rule="evenodd"/>
   <path d="m260.44 224.23c-0.12199 2.1958 0.12198 5.2455-0.48796 7.8072-0.60994 2.5618-8.9709 1.9457-12.077 5.0015-2.8431 2.7972-5.2455 7.9292-4.7575 10.979 0.48795 3.0497 18.786 3.7816 24.276 3.9036 5.4895 0.12199 14.883-1.5858 15.858-3.5377 0.97591-1.9518-1.1701-9.1724-4.1476-12.321-3.3101-3.5001-13.053-1.5858-13.419-5.3675-0.36596-3.7816 1.8298-7.3193-0.60994-7.4413-2.4398-0.12198-2.8057 0.24398-4.6356 0.97591z" fill="#284760" fill-rule="evenodd"/>
  </g>
  <ellipse transform="matrix(.59482 .80386 -.78905 .61433 0 0)" cx="284.47" cy="-80.631" rx="10.783" ry="16.421" fill="#798d9c"/>
  <circle cx="118.03" cy="240.98" r="4.3129" fill="#405c72" stroke="#14242f" stroke-linecap="round" stroke-linejoin="round"/>
  <circle transform="matrix(.84118 .54076 -.54076 .84118 0 0)" cx="228.46" cy="138.24" r="2.4093" fill="#798d9c"/>
  <circle transform="matrix(.84118 .54076 -.54076 .84118 0 0)" cx="228.04" cy="137.75" r="1.4944" fill="#fff"/>
  <circle cx="113.69" cy="261.85" r="4.3129" fill="#405c72" stroke="#14242f" stroke-linecap="round" stroke-linejoin="round"/>
  <circle transform="matrix(.82671 .56262 -.56262 .82671 0 0)" cx="240.5" cy="152.19" r="2.4093" fill="#798d9c"/>
  <circle transform="matrix(.82671 .56262 -.56262 .82671 0 0)" cx="240.08" cy="151.7" r="1.4944" fill="#fff"/>
  <g transform="translate(-19.84 128.01)">
   <circle cx="154.75" cy="151.61" r="4.3129" fill="#405c72" stroke="#14242f" stroke-linecap="round" stroke-linejoin="round"/>
   <circle cx="154.26" cy="150.89" r="2.4093" fill="#798d9c"/>
   <circle cx="153.84" cy="150.4" r="1.4944" fill="#fff"/>
  </g>
  <g transform="translate(11.904 138.01)">
   <circle cx="154.75" cy="151.61" r="4.3129" fill="#405c72" stroke="#14242f" stroke-linecap="round" stroke-linejoin="round"/>
   <circle cx="154.26" cy="150.89" r="2.4093" fill="#798d9c"/>
   <circle cx="153.84" cy="150.4" r="1.4944" fill="#fff"/>
  </g>
  <g transform="translate(53.998 144.57)">
   <circle cx="154.75" cy="151.61" r="4.3129" fill="#405c72" stroke="#14242f" stroke-linecap="round" stroke-linejoin="round"/>
   <circle cx="154.26" cy="150.89" r="2.4093" fill="#798d9c"/>
   <circle cx="153.84" cy="150.4" r="1.4944" fill="#fff"/>
  </g>
  <g transform="translate(100.41 147.85)">
   <circle cx="154.75" cy="151.61" r="4.3129" fill="#405c72" stroke="#14242f" stroke-linecap="round" stroke-linejoin="round"/>
   <circle cx="154.26" cy="150.89" r="2.4093" fill="#798d9c"/>
   <circle cx="153.84" cy="150.4" r="1.4944" fill="#fff"/>
  </g>
  <g transform="translate(146.29 144.74)">
   <circle cx="154.75" cy="151.61" r="4.3129" fill="#405c72" stroke="#14242f" stroke-linecap="round" stroke-linejoin="round"/>
   <circle cx="154.26" cy="150.89" r="2.4093" fill="#798d9c"/>
   <circle cx="153.84" cy="150.4" r="1.4944" fill="#fff"/>
  </g>
  <g transform="translate(190.63 136.81)">
   <circle cx="154.75" cy="151.61" r="4.3129" fill="#405c72" stroke="#14242f" stroke-linecap="round" stroke-linejoin="round"/>
   <circle cx="154.26" cy="150.89" r="2.4093" fill="#798d9c"/>
   <circle cx="153.84" cy="150.4" r="1.4944" fill="#fff"/>
  </g>
  <circle cx="382.3" cy="274.62" r="4.3129" fill="#405c72" stroke="#14242f" stroke-linecap="round" stroke-linejoin="round"/>
  <circle transform="matrix(.79636 .60483 -.60483 .79636 0 0)" cx="469.72" cy="-12.815" r="2.4093" fill="#798d9c"/>
  <circle transform="matrix(.79636 .60483 -.60483 .79636 0 0)" cx="469.29" cy="-13.303" r="1.4944" fill="#fff"/>
  <circle cx="400.07" cy="253.05" r="4.3129" fill="#405c72" stroke="#14242f" stroke-linecap="round" stroke-linejoin="round"/>
  <circle transform="matrix(.67572 .73715 -.73715 .67572 0 0)" cx="456.01" cy="-124.05" r="2.4093" fill="#798d9c"/>
  <circle transform="matrix(.67572 .73715 -.73715 .67572 0 0)" cx="455.59" cy="-124.54" r="1.4944" fill="#fff"/>
  <circle cx="382.47" cy="233.9" r="4.3129" fill="#405c72" stroke="#14242f" stroke-linecap="round" stroke-linejoin="round"/>
  <circle transform="matrix(.55159 .83411 -.83411 .55159 0 0)" cx="405.2" cy="-190" r="2.4093" fill="#798d9c"/>
  <circle transform="matrix(.55159 .83411 -.83411 .55159 0 0)" cx="404.77" cy="-190.49" r="1.4944" fill="#fff"/>
  <circle cx="352.63" cy="223.03" r="4.3129" fill="#405c72" stroke="#14242f" stroke-linecap="round" stroke-linejoin="round"/>
  <circle transform="matrix(.80163 .59782 -.59782 .80163 0 0)" cx="415.19" cy="-32.308" r="2.4093" fill="#798d9c"/>
  <circle transform="matrix(.80163 .59782 -.59782 .80163 0 0)" cx="414.76" cy="-32.796" r="1.4944" fill="#fff"/>
  <circle cx="146.81" cy="227.86" r="4.3129" fill="#405c72" stroke="#14242f" stroke-linecap="round" stroke-linejoin="round"/>
  <circle cx="146.39" cy="226.96" r="2.4093" fill="#798d9c"/>
  <ellipse cx="145.96" cy="226.47" rx="1.4944" ry="1.6163" fill="#fff"/>
  <g transform="translate(23.117 67.454)">
   <circle cx="154.75" cy="151.61" r="4.3129" fill="#405c72" stroke="#14242f" stroke-linecap="round" stroke-linejoin="round"/>
   <circle cx="154.26" cy="150.89" r="2.4093" fill="#798d9c"/>
   <circle cx="153.84" cy="150.4" r="1.4944" fill="#fff"/>
  </g>
  <g transform="translate(3.2778 -.34503)" stroke="#284760" stroke-linecap="round">
   <path d="m278.66 248.94c0.40315-1.3016 2.975-15.871 2.975-15.871" fill="none" stroke-width="3.1498"/>
   <rect transform="matrix(.9879 .15509 -.15509 .9879 0 0)" x="313.01" y="182.75" width="2.9277" height="2.9277" fill="#284760" stroke-linejoin="round" stroke-width="3"/>
  </g>
  <g transform="matrix(-1 0 0 1 512.66 -.55433)">
   <path d="m340.03 264.55v-24.46h6.5417l-6.5417-6.5417-10.915 1.0351 1.3547 3.7267-1.2474-0.86259 6.8796 3.972v21.993z" fill="#14242f" fill-rule="evenodd"/>
   <ellipse transform="matrix(-.98995 -.14142 0 1 0 0)" cx="-345.35" cy="186.13" rx="16.089" ry="15.928" fill="#405c72" stroke="#14242f" stroke-linecap="round" stroke-linejoin="round" stroke-width=".8285"/>
   <path d="m331.72 221.1 4.2737-1.8604 7.9944-0.10056 5.0279 2.4134 4.8268 4.4246 3.771 6.5866-0.35196 10.257s-3.9721-21.57-25.542-21.721z" fill="#fff" fill-rule="evenodd"/>
   <path d="m328.05 224.77-2.2123 5.9832s0.9553 7.0894 1.0558 7.4413c0.10057 0.35196 3.6704 6.5363 3.6704 6.5363l5.3799 4.2737 5.4302 1.6089 5.7318 0.30167 4.7262-1.9609s-18.05-5.6313-23.782-24.184z" fill="#798d9c" fill-rule="evenodd"/>
   <ellipse transform="matrix(-.98995 -.14142 0 1 0 0)" cx="-345.35" cy="186.13" rx="16.089" ry="15.928" fill="none" stroke="#14242f" stroke-linecap="round" stroke-linejoin="round" stroke-width="1.657"/>
   <path d="m340.38 218.82 1.4932 16.141 3.1073 16.066" fill="none" stroke="#14242f" stroke-linejoin="round" stroke-width="1.6487"/>
   <path d="m325.97 233.54 15.859 1.8034 15.846-0.1342" fill="none" stroke="#14242f" stroke-linejoin="round" stroke-width="1.6487"/>
   <path d="m330.3 222.38 11.581 12.589 13.58 10.263" fill="none" stroke="#14242f" stroke-linejoin="round" stroke-width="1.6487"/>
   <path d="m352.05 224.16-10.216 11.186-9.2879 11.192" fill="none" stroke="#14242f" stroke-linejoin="round" stroke-width="1.6487"/>
   <circle transform="scale(-1,1)" cx="-341.98" cy="234.99" r="3.1625" fill="#284760" stroke="#14242f" stroke-linecap="round" stroke-linejoin="round" stroke-width=".82433"/>
   <circle transform="scale(-1,1)" cx="-342.41" cy="234.54" r="1.6089" fill="#798d9c"/>
   <circle transform="scale(-1,1)" cx="-342.66" cy="234.4" r=".98044" fill="#fff"/>
  </g>
  <ellipse transform="matrix(.59482 .80386 -.78905 .61433 0 0)" cx="280.18" cy="-79.82" rx="5.3146" ry="8.0936" fill="#fff"/>
  <g transform="matrix(.44928 .05403 -.13204 .5129 195.32 153.03)">
   <rect x="235.22" y="350.43" width="84.376" height="38.415" ry="13.72" fill="#405c72"/>
   <path d="m319.6 367.28v4.7188h75.643v-4.7188h-75.643z" color="#000000" color-rendering="auto" fill="#14242f" fill-rule="evenodd" image-rendering="auto" shape-rendering="auto" solid-color="#000000" style="block-progression:tb;isolation:auto;mix-blend-mode:normal;text-decoration-color:#000000;text-decoration-line:none;text-decoration-style:solid;text-indent:0;text-transform:none;white-space:normal"/>
   <circle cx="395.24" cy="369.64" r="5.8656" fill="#fff" stroke="#14242f" stroke-linejoin="round" stroke-width="2"/>
   <ellipse cx="381.84" cy="369.64" rx="3.7134" ry="9.9942" fill="none" stroke="#14242f" stroke-linejoin="round" stroke-width="3.1889"/>
   <ellipse cx="368.38" cy="369.64" rx="4.7638" ry="12.821" fill="none" stroke="#14242f" stroke-linejoin="round" stroke-width="4.0909"/>
   <ellipse cx="351.82" cy="369.64" rx="6.2011" ry="16.689" fill="none" stroke="#14242f" stroke-linejoin="round" stroke-width="5.3252"/>
   <ellipse cx="330.25" cy="369.64" rx="8.1912" ry="22.046" fill="none" stroke="#14242f" stroke-linejoin="round" stroke-width="7.0342"/>
   <path d="m314.43 353.41c1.9763 1.9293 4.035 8.3289 4.035 8.3289l1.7252 13.801-6.7282 10.524-10.351 3.2778-30.191 0.17251-29.673-1.2076-6.3831-6.0381s46.446 14.05 77.566-28.858z" fill="#284760" fill-rule="evenodd"/>
   <path d="m233.59 368.12 4.1404-11.731 5.003-4.4854 13.456-1.3801 54.343 0.69007s-67.627 0-76.943 16.907z" fill="#798d9c" fill-rule="evenodd"/>
   <rect x="235.22" y="350.43" width="84.376" height="38.415" ry="13.72" fill="none" stroke="#14242f" stroke-linejoin="round" stroke-width="4"/>
  </g>
  <path d="m251.96 353.72v-22.341" fill="none" stroke="#14242f" stroke-width="5"/>
  <circle cx="251.96" cy="353.72" r="3.3875" fill="#284760"/>
  <path d="m251.96 349.74c-2.1876 0-3.9736 1.786-3.9736 3.9736s1.786 3.9736 3.9736 3.9736 3.9736-1.786 3.9736-3.9736-1.786-3.9736-3.9736-3.9736zm0 1.1723c1.5541 0 2.8013 1.2472 2.8013 2.8013s-1.2472 2.8013-2.8013 2.8013-2.8013-1.2472-2.8013-2.8013 1.2472-2.8013 2.8013-2.8013z" color="#000000" color-rendering="auto" fill="#14242f" image-rendering="auto" shape-rendering="auto" solid-color="#000000" style="block-progression:tb;isolation:auto;mix-blend-mode:normal;text-decoration-color:#000000;text-decoration-line:none;text-decoration-style:solid;text-indent:0;text-transform:none;white-space:normal"/>
 </g>
</svg>
